Hacktype-Regular-1.ufo
<glyph name="parenright" format="2">
	<advance width="287"/>
	<unicode hex="0029"/>
	<outline>
		<contour>
			<point x="222" y="-150" type="line" smooth="yes"/>
			<point x="230" y="-150"/>
			<point x="237" y="-143"/>
			<point x="237" y="-135" type="curve" smooth="yes"/>
			<point x="237" y="685" type="line" smooth="yes"/>
			<point x="237" y="693"/>
			<point x="230" y="700"/>
			<point x="222" y="700" type="curve" smooth="yes"/>
			<point x="65" y="700" type="line" smooth="yes"/>
			<point x="57" y="700"/>
			<point x="50" y="693"/>
			<point x="50" y="685" type="curve" smooth="yes"/>
			<point x="50" y="605" type="line" smooth="yes"/>
			<point x="50" y="597"/>
			<point x="57" y="590"/>
			<point x="65" y="590" type="curve" smooth="yes"/>
			<point x="112" y="590" type="line" smooth="yes"/>
			<point x="120" y="590"/>
			<point x="127" y="583"/>
			<point x="127" y="575" type="curve" smooth="yes"/>
			<point x="127" y="-25" type="line" smooth="yes"/>
			<point x="127" y="-33"/>
			<point x="120" y="-40"/>
			<point x="112" y="-40" type="curve" smooth="yes"/>
			<point x="65" y="-40" type="line" smooth="yes"/>
			<point x="57" y="-40"/>
			<point x="50" y="-47"/>
			<point x="50" y="-55" type="curve" smooth="yes"/>
			<point x="50" y="-135" type="line" smooth="yes"/>
			<point x="50" y="-143"/>
			<point x="57" y="-150"/>
			<point x="65" y="-150" type="curve" smooth="yes"/>
		</contour>
	</outline>
</glyph>
<glyph name="zero" format="2">
	<advance width="852"/>
	<unicode hex="0030"/>
	<outline>
		<contour>
			<point x="50" y="585" type="curve" smooth="yes"/>
			<point x="50" y="115" type="line" smooth="yes"/>
			<point x="50" y="49"/>
			<point x="99" y="0"/>
			<point x="165" y="0" type="curve" smooth="yes"/>
			<point x="687" y="0" type="line" smooth="yes"/>
			<point x="753" y="0"/>
			<point x="802" y="49"/>
			<point x="802" y="115" type="curve" smooth="yes"/>
			<point x="802" y="585" type="line" smooth="yes"/>
			<point x="802" y="651"/>
			<point x="753" y="700"/>
			<point x="687" y="700" type="curve" smooth="yes"/>
			<point x="165" y="700" type="line" smooth="yes"/>
			<point x="99" y="700"/>
			<point x="50" y="651"/>
		</contour>
		<contour>
			<point x="534" y="357" type="curve" smooth="yes"/>
			<point x="534" y="343" type="line" smooth="yes"/>
			<point x="534" y="335"/>
			<point x="528" y="329"/>
			<point x="520" y="329" type="curve" smooth="yes"/>
			<point x="332" y="329" type="line" smooth="yes"/>
			<point x="324" y="329"/>
			<point x="318" y="335"/>
			<point x="318" y="343" type="curve" smooth="yes"/>
			<point x="318" y="357" type="line" smooth="yes"/>
			<point x="318" y="366"/>
			<point x="324" y="371"/>
			<point x="332" y="371" type="curve" smooth="yes"/>
			<point x="520" y="371" type="line" smooth="yes"/>
			<point x="528" y="371"/>
			<point x="534" y="366"/>
		</contour>
	</outline>
</glyph>
<glyph name="two" format="2">
	<advance width="850"/>
	<unicode hex="0032"/>
	<outline>
		<contour>
			<point x="50" y="437" type="curve" smooth="yes"/>
			<point x="50" y="583" type="line" smooth="yes"/>
			<point x="50" y="651"/>
			<point x="99" y="700"/>
			<point x="167" y="700" type="curve" smooth="yes"/>
			<point x="683" y="700" type="line" smooth="yes"/>
			<point x="751" y="700"/>
			<point x="800" y="651"/>
			<point x="800" y="583" type="curve" smooth="yes"/>
			<point x="800" y="341" type="line" smooth="yes"/>
			<point x="800" y="273"/>
			<point x="751" y="224"/>
			<point x="683" y="224" type="curve" smooth="yes"/>
			<point x="535" y="224" type="line" smooth="yes"/>
			<point x="527" y="224"/>
			<point x="520" y="217"/>
			<point x="520" y="209" type="curve" smooth="yes"/>
			<point x="520" y="197" type="line" smooth="yes"/>
			<point x="520" y="189"/>
			<point x="527" y="182"/>
			<point x="535" y="182" type="curve" smooth="yes"/>
			<point x="729" y="182" type="line" smooth="yes"/>
			<point x="770" y="182"/>
			<point x="800" y="152"/>
			<point x="800" y="111" type="curve" smooth="yes"/>
			<point x="800" y="71" type="line" smooth="yes"/>
			<point x="800" y="30"/>
			<point x="770" y="0"/>
			<point x="729" y="0" type="curve" smooth="yes"/>
			<point x="121" y="0" type="line" smooth="yes"/>
			<point x="80" y="0"/>
			<point x="50" y="30"/>
			<point x="50" y="71" type="curve" smooth="yes"/>
			<point x="50" y="253" type="line" smooth="yes"/>
			<point x="50" y="294"/>
			<point x="80" y="324"/>
			<point x="121" y="324" type="curve" smooth="yes"/>
			<point x="397" y="324" type="line" smooth="yes"/>
			<point x="405" y="324"/>
			<point x="408" y="324"/>
			<point x="412" y="324" type="curve"/>
			<point x="424" y="324" type="line" smooth="yes"/>
			<point x="433" y="324"/>
			<point x="439" y="329"/>
			<point x="439" y="339" type="curve" smooth="yes"/>
			<point x="439" y="351" type="line" smooth="yes"/>
			<point x="439" y="361"/>
			<point x="433" y="366"/>
			<point x="424" y="366" type="curve" smooth="yes"/>
			<point x="400" y="366" type="line"/>
			<point x="397" y="366"/>
			<point x="393" y="366"/>
			<point x="385" y="366" type="curve" smooth="yes"/>
			<point x="121" y="366" type="line" smooth="yes"/>
			<point x="80" y="366"/>
			<point x="50" y="396"/>
		</contour>
	</outline>
</glyph>
<glyph name="four" format="2">
	<advance width="850"/>
	<unicode hex="0034"/>
	<outline>
		<contour>
			<point x="121" y="700" type="curve" smooth="yes"/>
			<point x="682" y="700" type="line" smooth="yes"/>
			<point x="723" y="700"/>
			<point x="753" y="670"/>
			<point x="753" y="629" type="curve" smooth="yes"/>
			<point x="753" y="284" type="line" smooth="yes"/>
			<point x="753" y="276"/>
			<point x="760" y="269"/>
			<point x="768" y="269" type="curve" smooth="yes"/>
			<point x="769" y="269" type="line" smooth="yes"/>
			<point x="802" y="269"/>
			<point x="800" y="239"/>
			<point x="800" y="198" type="curve" smooth="yes"/>
			<point x="800" y="158" type="line" smooth="yes"/>
			<point x="800" y="117"/>
			<point x="786" y="71"/>
			<point x="745" y="71" type="curve" smooth="yes"/>
			<point x="744" y="71" type="line" smooth="yes"/>
			<point x="736" y="71"/>
			<point x="729" y="64"/>
			<point x="729" y="56" type="curve" smooth="yes"/>
			<point x="729" y="55" type="line" smooth="yes"/>
			<point x="729" y="14"/>
			<point x="683" y="0"/>
			<point x="642" y="0" type="curve" smooth="yes"/>
			<point x="602" y="0" type="line" smooth="yes"/>
			<point x="561" y="0"/>
			<point x="531" y="0"/>
			<point x="531" y="31" type="curve" smooth="yes"/>
			<point x="531" y="32" type="line" smooth="yes"/>
			<point x="531" y="40"/>
			<point x="524" y="47"/>
			<point x="516" y="47" type="curve" smooth="yes"/>
			<point x="121" y="47" type="line" smooth="yes"/>
			<point x="80" y="47"/>
			<point x="50" y="77"/>
			<point x="50" y="118" type="curve" smooth="yes"/>
			<point x="50" y="629" type="line" smooth="yes"/>
			<point x="50" y="670"/>
			<point x="80" y="700"/>
		</contour>
		<contour>
			<point x="388" y="498" type="curve" smooth="yes"/>
			<point x="376" y="498" type="line" smooth="yes"/>
			<point x="368" y="498"/>
			<point x="361" y="491"/>
			<point x="361" y="483" type="curve" smooth="yes"/>
			<point x="361" y="344" type="line" smooth="yes"/>
			<point x="361" y="336"/>
			<point x="368" y="329"/>
			<point x="376" y="329" type="curve" smooth="yes"/>
			<point x="388" y="329" type="line" smooth="yes"/>
			<point x="396" y="329"/>
			<point x="403" y="336"/>
			<point x="403" y="344" type="curve" smooth="yes"/>
			<point x="403" y="483" type="line" smooth="yes"/>
			<point x="403" y="491"/>
			<point x="396" y="498"/>
		</contour>
	</outline>
</glyph>
<glyph name="eight" format="2">
	<advance width="852"/>
	<unicode hex="0038"/>
	<outline>
		<contour>
			<point x="167" y="700" type="curve" smooth="yes"/>
			<point x="687" y="700" type="line" smooth="yes"/>
			<point x="753" y="700"/>
			<point x="802" y="651"/>
			<point x="802" y="585" type="curve" smooth="yes"/>
			<point x="802" y="442" type="line" smooth="yes"/>
			<point x="802" y="402"/>
			<point x="771" y="371"/>
			<point x="730" y="371" type="curve" smooth="yes"/>
			<point x="694" y="371" type="line" smooth="yes"/>
			<point x="686" y="371"/>
			<point x="680" y="365"/>
			<point x="680" y="357" type="curve" smooth="yes"/>
			<point x="680" y="343" type="line" smooth="yes"/>
			<point x="680" y="335"/>
			<point x="686" y="329"/>
			<point x="694" y="329" type="curve" smooth="yes"/>
			<point x="729" y="329" type="line" smooth="yes"/>
			<point x="770" y="329"/>
			<point x="802" y="298"/>
			<point x="802" y="258" type="curve" smooth="yes"/>
			<point x="802" y="115" type="line" smooth="yes"/>
			<point x="802" y="49"/>
			<point x="751" y="0"/>
			<point x="686" y="0" type="curve" smooth="yes"/>
			<point x="167" y="0" type="line" smooth="yes"/>
			<point x="99" y="0"/>
			<point x="50" y="49"/>
			<point x="50" y="117" type="curve" smooth="yes"/>
			<point x="50" y="257" type="line" smooth="yes"/>
			<point x="50" y="298"/>
			<point x="80" y="327"/>
			<point x="121" y="328" type="curve" smooth="yes"/>
			<point x="157" y="329" type="line" smooth="yes"/>
			<point x="165" y="329"/>
			<point x="172" y="336"/>
			<point x="172" y="344" type="curve" smooth="yes"/>
			<point x="172" y="356" type="line" smooth="yes"/>
			<point x="172" y="364"/>
			<point x="165" y="371"/>
			<point x="157" y="371" type="curve" smooth="yes"/>
			<point x="121" y="371" type="line" smooth="yes"/>
			<point x="80" y="371"/>
			<point x="50" y="401"/>
			<point x="50" y="442" type="curve" smooth="yes"/>
			<point x="50" y="583" type="line" smooth="yes"/>
			<point x="50" y="651"/>
			<point x="99" y="700"/>
		</contour>
		<contour>
			<point x="446" y="226" type="curve" smooth="yes"/>
			<point x="446" y="295" type="line" smooth="yes"/>
			<point x="446" y="304"/>
			<point x="440" y="309"/>
			<point x="432" y="309" type="curve" smooth="yes"/>
			<point x="418" y="309" type="line" smooth="yes"/>
			<point x="410" y="309"/>
			<point x="404" y="304"/>
			<point x="404" y="295" type="curve" smooth="yes"/>
			<point x="404" y="226" type="line" smooth="yes"/>
			<point x="404" y="217"/>
			<point x="410" y="212"/>
			<point x="418" y="212" type="curve" smooth="yes"/>
			<point x="432" y="212" type="line" smooth="yes"/>
			<point x="440" y="212"/>
			<point x="446" y="217"/>
		</contour>
		<contour>
			<point x="446" y="405" type="curve" smooth="yes"/>
			<point x="446" y="474" type="line" smooth="yes"/>
			<point x="446" y="483"/>
			<point x="440" y="488"/>
			<point x="432" y="488" type="curve" smooth="yes"/>
			<point x="418" y="488" type="line" smooth="yes"/>
			<point x="410" y="488"/>
			<point x="404" y="483"/>
			<point x="404" y="474" type="curve" smooth="yes"/>
			<point x="404" y="405" type="line" smooth="yes"/>
			<point x="404" y="396"/>
			<point x="410" y="391"/>
			<point x="418" y="391" type="curve" smooth="yes"/>
			<point x="432" y="391" type="line" smooth="yes"/>
			<point x="440" y="391"/>
			<point x="446" y="396"/>
		</contour>
	</outline>
</glyph>
<glyph name="A" format="2">
	<advance width="852"/>
	<unicode hex="0041"/>
	<outline>
		<contour>
			<point x="50" y="70" type="curve" smooth="yes"/>
			<point x="50" y="629" type="line" smooth="yes"/>
			<point x="50" y="668"/>
			<point x="79" y="700"/>
			<point x="119" y="700" type="curve" smooth="yes"/>
			<point x="730" y="700" type="line" smooth="yes"/>
			<point x="770" y="700"/>
			<point x="802" y="668"/>
			<point x="802" y="629" type="curve" smooth="yes"/>
			<point x="802" y="69" type="line" smooth="yes"/>
			<point x="802" y="29"/>
			<point x="770" y="0"/>
			<point x="730" y="0" type="curve" smooth="yes"/>
			<point x="686" y="0" type="line" smooth="yes"/>
			<point x="646" y="0"/>
			<point x="616" y="11"/>
			<point x="616" y="50" type="curve" smooth="yes"/>
			<point x="616" y="53" type="line" smooth="yes"/>
			<point x="616" y="61"/>
			<point x="610" y="67"/>
			<point x="602" y="67" type="curve" smooth="yes"/>
			<point x="250" y="67" type="line" smooth="yes"/>
			<point x="242" y="67"/>
			<point x="236" y="61"/>
			<point x="236" y="53" type="curve" smooth="yes"/>
			<point x="236" y="50" type="line" smooth="yes"/>
			<point x="236" y="11"/>
			<point x="205" y="0"/>
			<point x="166" y="0" type="curve" smooth="yes"/>
			<point x="119" y="0" type="line" smooth="yes"/>
			<point x="79" y="0"/>
			<point x="50" y="31"/>
		</contour>
		<contour>
			<point x="316" y="269" type="curve" smooth="yes"/>
			<point x="516" y="269" type="line" smooth="yes"/>
			<point x="524" y="269"/>
			<point x="530" y="274"/>
			<point x="530" y="283" type="curve" smooth="yes"/>
			<point x="530" y="297" type="line" smooth="yes"/>
			<point x="530" y="305"/>
			<point x="524" y="311"/>
			<point x="516" y="311" type="curve" smooth="yes"/>
			<point x="316" y="311" type="line" smooth="yes"/>
			<point x="308" y="311"/>
			<point x="302" y="305"/>
			<point x="302" y="297" type="curve" smooth="yes"/>
			<point x="302" y="283" type="line" smooth="yes"/>
			<point x="302" y="274"/>
			<point x="308" y="269"/>
		</contour>
	</outline>
</glyph>
<glyph name="B" format="2">
	<advance width="852"/>
	<unicode hex="0042"/>
	<outline>
		<contour>
			<point x="121" y="700" type="curve" smooth="yes"/>
			<point x="687" y="700" type="line" smooth="yes"/>
			<point x="753" y="700"/>
			<point x="802" y="651"/>
			<point x="802" y="585" type="curve" smooth="yes"/>
			<point x="802" y="442" type="line" smooth="yes"/>
			<point x="802" y="402"/>
			<point x="771" y="371"/>
			<point x="730" y="371" type="curve" smooth="yes"/>
			<point x="714" y="371" type="line" smooth="yes"/>
			<point x="706" y="371"/>
			<point x="700" y="365"/>
			<point x="700" y="357" type="curve" smooth="yes"/>
			<point x="700" y="343" type="line" smooth="yes"/>
			<point x="700" y="335"/>
			<point x="706" y="329"/>
			<point x="714" y="329" type="curve" smooth="yes"/>
			<point x="729" y="329" type="line" smooth="yes"/>
			<point x="770" y="329"/>
			<point x="800" y="298"/>
			<point x="800" y="258" type="curve" smooth="yes"/>
			<point x="800" y="115" type="line" smooth="yes"/>
			<point x="800" y="49"/>
			<point x="751" y="0"/>
			<point x="686" y="0" type="curve" smooth="yes"/>
			<point x="121" y="0" type="line" smooth="yes"/>
			<point x="81" y="0"/>
			<point x="50" y="31"/>
			<point x="50" y="71" type="curve" smooth="yes"/>
			<point x="50" y="629" type="line" smooth="yes"/>
			<point x="50" y="669"/>
			<point x="81" y="700"/>
		</contour>
		<contour>
			<point x="524" y="329" type="curve" smooth="yes"/>
			<point x="325" y="329" type="line" smooth="yes"/>
			<point x="316" y="329"/>
			<point x="311" y="323"/>
			<point x="311" y="315" type="curve" smooth="yes"/>
			<point x="311" y="301" type="line" smooth="yes"/>
			<point x="311" y="293"/>
			<point x="316" y="287"/>
			<point x="325" y="287" type="curve" smooth="yes"/>
			<point x="524" y="287" type="line" smooth="yes"/>
			<point x="533" y="287"/>
			<point x="538" y="293"/>
			<point x="538" y="301" type="curve" smooth="yes"/>
			<point x="538" y="315" type="line" smooth="yes"/>
			<point x="538" y="323"/>
			<point x="533" y="329"/>
		</contour>
		<contour>
			<point x="524" y="413" type="curve" smooth="yes"/>
			<point x="325" y="413" type="line" smooth="yes"/>
			<point x="316" y="413"/>
			<point x="311" y="407"/>
			<point x="311" y="399" type="curve" smooth="yes"/>
			<point x="311" y="385" type="line" smooth="yes"/>
			<point x="311" y="377"/>
			<point x="316" y="371"/>
			<point x="325" y="371" type="curve" smooth="yes"/>
			<point x="524" y="371" type="line" smooth="yes"/>
			<point x="533" y="371"/>
			<point x="538" y="377"/>
			<point x="538" y="385" type="curve" smooth="yes"/>
			<point x="538" y="399" type="line" smooth="yes"/>
			<point x="538" y="407"/>
			<point x="533" y="413"/>
		</contour>
	</outline>
</glyph>
<glyph name="D" format="2">
	<advance width="851"/>
	<unicode hex="0044"/>
	<outline>
		<contour>
			<point x="50" y="72" type="line"/>
			<point x="50" y="31"/>
			<point x="81" y="0"/>
			<point x="122" y="0" type="curve"/>
			<point x="688" y="0" type="line"/>
			<point x="753" y="0"/>
			<point x="801" y="48"/>
			<point x="801" y="115" type="curve"/>
			<point x="801" y="585" type="line"/>
			<point x="801" y="651"/>
			<point x="753" y="700"/>
			<point x="688" y="700" type="curve"/>
			<point x="122" y="700" type="line"/>
			<point x="81" y="700"/>
			<point x="50" y="669"/>
			<point x="50" y="629" type="curve"/>
		</contour>
		<contour>
			<point x="339" y="372" type="curve"/>
			<point x="566" y="372" type="line"/>
			<point x="574" y="372"/>
			<point x="579" y="366"/>
			<point x="579" y="358" type="curve"/>
			<point x="579" y="343" type="line"/>
			<point x="579" y="334"/>
			<point x="574" y="329"/>
			<point x="566" y="329" type="curve"/>
			<point x="339" y="329" type="line"/>
			<point x="331" y="329"/>
			<point x="325" y="334"/>
			<point x="325" y="343" type="curve"/>
			<point x="325" y="358" type="line"/>
			<point x="325" y="366"/>
			<point x="331" y="372"/>
		</contour>
	</outline>
</glyph>
<glyph name="E" format="2">
	<advance width="852"/>
	<unicode hex="0045"/>
	<outline>
		<contour>
			<point x="50" y="629" type="curve" smooth="yes"/>
			<point x="50" y="71" type="line" smooth="yes"/>
			<point x="50" y="31"/>
			<point x="81" y="0"/>
			<point x="121" y="0" type="curve" smooth="yes"/>
			<point x="730" y="0" type="line" smooth="yes"/>
			<point x="771" y="0"/>
			<point x="802" y="31"/>
			<point x="802" y="71" type="curve" smooth="yes"/>
			<point x="802" y="111" type="line" smooth="yes"/>
			<point x="802" y="151"/>
			<point x="771" y="182"/>
			<point x="730" y="182" type="curve" smooth="yes"/>
			<point x="432" y="182" type="line" smooth="yes"/>
			<point x="423" y="182"/>
			<point x="418" y="188"/>
			<point x="418" y="196" type="curve" smooth="yes"/>
			<point x="418" y="210" type="line" smooth="yes"/>
			<point x="418" y="218"/>
			<point x="423" y="224"/>
			<point x="432" y="224" type="curve" smooth="yes"/>
			<point x="671" y="224" type="line" smooth="yes"/>
			<point x="712" y="224"/>
			<point x="743" y="255"/>
			<point x="743" y="295" type="curve" smooth="yes"/>
			<point x="743" y="405" type="line" smooth="yes"/>
			<point x="743" y="445"/>
			<point x="712" y="476"/>
			<point x="671" y="476" type="curve" smooth="yes"/>
			<point x="432" y="476" type="line" smooth="yes"/>
			<point x="423" y="476"/>
			<point x="418" y="482"/>
			<point x="418" y="490" type="curve" smooth="yes"/>
			<point x="418" y="504" type="line" smooth="yes"/>
			<point x="418" y="512"/>
			<point x="423" y="518"/>
			<point x="432" y="518" type="curve" smooth="yes"/>
			<point x="730" y="518" type="line" smooth="yes"/>
			<point x="771" y="518"/>
			<point x="802" y="549"/>
			<point x="802" y="589" type="curve" smooth="yes"/>
			<point x="802" y="629" type="line" smooth="yes"/>
			<point x="802" y="669"/>
			<point x="771" y="700"/>
			<point x="730" y="700" type="curve" smooth="yes"/>
			<point x="121" y="700" type="line" smooth="yes"/>
			<point x="81" y="700"/>
			<point x="50" y="669"/>
		</contour>
	</outline>
</glyph>
<glyph name="F" format="2">
	<advance width="852"/>
	<unicode hex="0046"/>
	<outline>
		<contour>
			<point x="50" y="629" type="curve" smooth="yes"/>
			<point x="50" y="71" type="line" smooth="yes"/>
			<point x="50" y="31"/>
			<point x="81" y="0"/>
			<point x="121" y="0" type="curve" smooth="yes"/>
			<point x="161" y="0" type="line" smooth="yes"/>
			<point x="201" y="0"/>
			<point x="232" y="1"/>
			<point x="232" y="41" type="curve" smooth="yes"/>
			<point x="232" y="43" type="line" smooth="yes"/>
			<point x="232" y="51"/>
			<point x="238" y="57"/>
			<point x="246" y="57" type="curve" smooth="yes"/>
			<point x="628" y="57" type="line" smooth="yes"/>
			<point x="669" y="57"/>
			<point x="700" y="88"/>
			<point x="700" y="128" type="curve" smooth="yes"/>
			<point x="700" y="301" type="line" smooth="yes"/>
			<point x="700" y="342"/>
			<point x="669" y="372"/>
			<point x="628" y="372" type="curve" smooth="yes"/>
			<point x="436" y="372" type="line" smooth="yes"/>
			<point x="428" y="372"/>
			<point x="422" y="378"/>
			<point x="422" y="386" type="curve" smooth="yes"/>
			<point x="422" y="400" type="line" smooth="yes"/>
			<point x="422" y="409"/>
			<point x="428" y="414"/>
			<point x="436" y="414" type="curve" smooth="yes"/>
			<point x="730" y="414" type="line" smooth="yes"/>
			<point x="771" y="414"/>
			<point x="802" y="445"/>
			<point x="802" y="486" type="curve" smooth="yes"/>
			<point x="802" y="629" type="line" smooth="yes"/>
			<point x="802" y="669"/>
			<point x="771" y="700"/>
			<point x="730" y="700" type="curve" smooth="yes"/>
			<point x="121" y="700" type="line" smooth="yes"/>
			<point x="81" y="700"/>
			<point x="50" y="669"/>
		</contour>
	</outline>
</glyph>
<glyph name="G" format="2">
	<advance width="852"/>
	<unicode hex="0047"/>
	<outline>
		<contour>
			<point x="50" y="585" type="curve" smooth="yes"/>
			<point x="50" y="115" type="line" smooth="yes"/>
			<point x="50" y="49"/>
			<point x="99" y="0"/>
			<point x="165" y="0" type="curve" smooth="yes"/>
			<point x="687" y="0" type="line" smooth="yes"/>
			<point x="753" y="0"/>
			<point x="802" y="49"/>
			<point x="802" y="115" type="curve" smooth="yes"/>
			<point x="802" y="237" type="line" smooth="yes"/>
			<point x="802" y="277"/>
			<point x="771" y="308"/>
			<point x="730" y="308" type="curve" smooth="yes"/>
			<point x="288" y="308" type="line" smooth="yes"/>
			<point x="280" y="308"/>
			<point x="274" y="302"/>
			<point x="274" y="294" type="curve" smooth="yes"/>
			<point x="274" y="280" type="line" smooth="yes"/>
			<point x="274" y="272"/>
			<point x="274" y="269"/>
			<point x="274" y="266" type="curve"/>
			<point x="274" y="265" type="line" smooth="yes"/>
			<point x="274" y="257"/>
			<point x="274" y="260"/>
			<point x="274" y="252" type="curve" smooth="yes"/>
			<point x="274" y="238" type="line" smooth="yes"/>
			<point x="274" y="230"/>
			<point x="268" y="224"/>
			<point x="260" y="224" type="curve" smooth="yes"/>
			<point x="246" y="224" type="line" smooth="yes"/>
			<point x="238" y="224"/>
			<point x="232" y="230"/>
			<point x="232" y="238" type="curve" smooth="yes"/>
			<point x="232" y="336" type="line" smooth="yes"/>
			<point x="232" y="344"/>
			<point x="238" y="350"/>
			<point x="246" y="350" type="curve" smooth="yes"/>
			<point x="730" y="350" type="line" smooth="yes"/>
			<point x="771" y="350"/>
			<point x="802" y="381"/>
			<point x="802" y="421" type="curve" smooth="yes"/>
			<point x="802" y="629" type="line" smooth="yes"/>
			<point x="802" y="669"/>
			<point x="771" y="700"/>
			<point x="730" y="700" type="curve" smooth="yes"/>
			<point x="165" y="700" type="line" smooth="yes"/>
			<point x="99" y="700"/>
			<point x="50" y="651"/>
		</contour>
	</outline>
</glyph>
<glyph name="H" format="2">
	<advance width="852"/>
	<unicode hex="0048"/>
	<outline>
		<contour>
			<point x="50" y="629" type="curve" smooth="yes"/>
			<point x="50" y="71" type="line" smooth="yes"/>
			<point x="50" y="31"/>
			<point x="81" y="0"/>
			<point x="121" y="0" type="curve" smooth="yes"/>
			<point x="334" y="0" type="line" smooth="yes"/>
			<point x="375" y="0"/>
			<point x="406" y="31"/>
			<point x="406" y="71" type="curve" smooth="yes"/>
			<point x="406" y="205" type="line" smooth="yes"/>
			<point x="406" y="213"/>
			<point x="411" y="219"/>
			<point x="420" y="219" type="curve" smooth="yes"/>
			<point x="434" y="219" type="line" smooth="yes"/>
			<point x="442" y="219"/>
			<point x="448" y="213"/>
			<point x="448" y="205" type="curve" smooth="yes"/>
			<point x="448" y="71" type="line" smooth="yes"/>
			<point x="448" y="31"/>
			<point x="478" y="0"/>
			<point x="519" y="0" type="curve" smooth="yes"/>
			<point x="730" y="0" type="line" smooth="yes"/>
			<point x="771" y="0"/>
			<point x="802" y="31"/>
			<point x="802" y="71" type="curve" smooth="yes"/>
			<point x="802" y="629" type="line" smooth="yes"/>
			<point x="802" y="669"/>
			<point x="771" y="700"/>
			<point x="730" y="700" type="curve" smooth="yes"/>
			<point x="519" y="700" type="line" smooth="yes"/>
			<point x="478" y="700"/>
			<point x="448" y="669"/>
			<point x="448" y="629" type="curve" smooth="yes"/>
			<point x="448" y="495" type="line" smooth="yes"/>
			<point x="448" y="487"/>
			<point x="442" y="481"/>
			<point x="434" y="481" type="curve" smooth="yes"/>
			<point x="420" y="481" type="line" smooth="yes"/>
			<point x="411" y="481"/>
			<point x="406" y="487"/>
			<point x="406" y="495" type="curve" smooth="yes"/>
			<point x="406" y="629" type="line" smooth="yes"/>
			<point x="406" y="669"/>
			<point x="375" y="700"/>
			<point x="334" y="700" type="curve" smooth="yes"/>
			<point x="121" y="700" type="line" smooth="yes"/>
			<point x="81" y="700"/>
			<point x="50" y="669"/>
		</contour>
	</outline>
</glyph>
<glyph name="I" format="2">
	<advance width="560"/>
	<unicode hex="0049"/>
	<outline>
		<contour>
			<point x="50" y="629" type="curve" smooth="yes"/>
			<point x="50" y="72" type="line" smooth="yes"/>
			<point x="50" y="31"/>
			<point x="81" y="0"/>
			<point x="122" y="0" type="curve" smooth="yes"/>
			<point x="438" y="0" type="line" smooth="yes"/>
			<point x="479" y="0"/>
			<point x="510" y="31"/>
			<point x="510" y="72" type="curve" smooth="yes"/>
			<point x="510" y="629" type="line" smooth="yes"/>
			<point x="510" y="669"/>
			<point x="479" y="700"/>
			<point x="438" y="700" type="curve" smooth="yes"/>
			<point x="122" y="700" type="line" smooth="yes"/>
			<point x="81" y="700"/>
			<point x="50" y="669"/>
		</contour>
	</outline>
</glyph>
<glyph name="K" format="2">
	<advance width="852"/>
	<unicode hex="004B"/>
	<outline>
		<contour>
			<point x="50" y="629" type="curve" smooth="yes"/>
			<point x="50" y="71" type="line" smooth="yes"/>
			<point x="50" y="31"/>
			<point x="81" y="0"/>
			<point x="121" y="0" type="curve" smooth="yes"/>
			<point x="161" y="0" type="line" smooth="yes"/>
			<point x="201" y="0"/>
			<point x="232" y="31"/>
			<point x="232" y="71" type="curve" smooth="yes"/>
			<point x="232" y="195" type="line" smooth="yes"/>
			<point x="232" y="203"/>
			<point x="238" y="209"/>
			<point x="246" y="209" type="curve" smooth="yes"/>
			<point x="260" y="209" type="line" smooth="yes"/>
			<point x="268" y="209"/>
			<point x="274" y="203"/>
			<point x="274" y="195" type="curve" smooth="yes"/>
			<point x="274" y="71" type="line" smooth="yes"/>
			<point x="274" y="31"/>
			<point x="305" y="0"/>
			<point x="345" y="0" type="curve" smooth="yes"/>
			<point x="730" y="0" type="line" smooth="yes"/>
			<point x="771" y="0"/>
			<point x="802" y="31"/>
			<point x="802" y="71" type="curve" smooth="yes"/>
			<point x="802" y="258" type="line" smooth="yes"/>
			<point x="802" y="298"/>
			<point x="771" y="329"/>
			<point x="730" y="329" type="curve" smooth="yes"/>
			<point x="520" y="329" type="line" smooth="yes"/>
			<point x="512" y="329"/>
			<point x="506" y="335"/>
			<point x="506" y="343" type="curve" smooth="yes"/>
			<point x="506" y="357" type="line" smooth="yes"/>
			<point x="506" y="365"/>
			<point x="512" y="371"/>
			<point x="520" y="371" type="curve" smooth="yes"/>
			<point x="730" y="371" type="line" smooth="yes"/>
			<point x="771" y="371"/>
			<point x="802" y="402"/>
			<point x="802" y="442" type="curve" smooth="yes"/>
			<point x="802" y="629" type="line" smooth="yes"/>
			<point x="802" y="669"/>
			<point x="771" y="700"/>
			<point x="730" y="700" type="curve" smooth="yes"/>
			<point x="345" y="700" type="line" smooth="yes"/>
			<point x="305" y="700"/>
			<point x="274" y="669"/>
			<point x="274" y="629" type="curve" smooth="yes"/>
			<point x="274" y="505" type="line" smooth="yes"/>
			<point x="274" y="497"/>
			<point x="268" y="491"/>
			<point x="260" y="491" type="curve" smooth="yes"/>
			<point x="246" y="491" type="line" smooth="yes"/>
			<point x="238" y="491"/>
			<point x="232" y="497"/>
			<point x="232" y="505" type="curve" smooth="yes"/>
			<point x="232" y="629" type="line" smooth="yes"/>
			<point x="232" y="669"/>
			<point x="201" y="700"/>
			<point x="161" y="700" type="curve" smooth="yes"/>
			<point x="121" y="700" type="line" smooth="yes"/>
			<point x="81" y="700"/>
			<point x="50" y="669"/>
		</contour>
	</outline>
</glyph>
<glyph name="L" format="2">
	<advance width="852"/>
	<unicode hex="004C"/>
	<outline>
		<contour>
			<point x="50" y="629" type="curve" smooth="yes"/>
			<point x="50" y="71" type="line" smooth="yes"/>
			<point x="50" y="31"/>
			<point x="81" y="0"/>
			<point x="121" y="0" type="curve" smooth="yes"/>
			<point x="730" y="0" type="line" smooth="yes"/>
			<point x="771" y="0"/>
			<point x="802" y="31"/>
			<point x="802" y="71" type="curve" smooth="yes"/>
			<point x="802" y="171" type="line" smooth="yes"/>
			<point x="802" y="211"/>
			<point x="771" y="242"/>
			<point x="730" y="242" type="curve" smooth="yes"/>
			<point x="616" y="242" type="line" smooth="yes"/>
			<point x="608" y="242"/>
			<point x="602" y="248"/>
			<point x="602" y="256" type="curve" smooth="yes"/>
			<point x="602" y="629" type="line" smooth="yes"/>
			<point x="602" y="669"/>
			<point x="571" y="700"/>
			<point x="531" y="700" type="curve" smooth="yes"/>
			<point x="121" y="700" type="line" smooth="yes"/>
			<point x="81" y="700"/>
			<point x="50" y="669"/>
		</contour>
	</outline>
</glyph>
<glyph name="O" format="2">
	<advance width="852"/>
	<unicode hex="004F"/>
	<outline>
		<contour>
			<point x="50" y="584" type="curve" smooth="yes"/>
			<point x="50" y="115" type="line" smooth="yes"/>
			<point x="50" y="49"/>
			<point x="99" y="0"/>
			<point x="165" y="0" type="curve" smooth="yes"/>
			<point x="686" y="0" type="line" smooth="yes"/>
			<point x="752" y="0"/>
			<point x="802" y="49"/>
			<point x="802" y="115" type="curve" smooth="yes"/>
			<point x="802" y="584" type="line" smooth="yes"/>
			<point x="802" y="650"/>
			<point x="752" y="700"/>
			<point x="686" y="700" type="curve" smooth="yes"/>
			<point x="165" y="700" type="line" smooth="yes"/>
			<point x="99" y="700"/>
			<point x="50" y="650"/>
		</contour>
		<contour>
			<point x="419" y="418" type="curve" smooth="yes"/>
			<point x="433" y="418" type="line" smooth="yes"/>
			<point x="441" y="418"/>
			<point x="447" y="412"/>
			<point x="447" y="404" type="curve" smooth="yes"/>
			<point x="447" y="276" type="line" smooth="yes"/>
			<point x="447" y="267"/>
			<point x="441" y="262"/>
			<point x="433" y="262" type="curve" smooth="yes"/>
			<point x="419" y="262" type="line" smooth="yes"/>
			<point x="411" y="262"/>
			<point x="405" y="267"/>
			<point x="405" y="276" type="curve" smooth="yes"/>
			<point x="405" y="404" type="line" smooth="yes"/>
			<point x="405" y="412"/>
			<point x="411" y="418"/>
		</contour>
	</outline>
</glyph>
<glyph name="P" format="2">
	<advance width="852"/>
	<unicode hex="0050"/>
	<outline>
		<contour>
			<point x="50" y="629" type="curve" smooth="yes"/>
			<point x="50" y="71" type="line" smooth="yes"/>
			<point x="50" y="31"/>
			<point x="81" y="0"/>
			<point x="121" y="0" type="curve" smooth="yes"/>
			<point x="161" y="0" type="line" smooth="yes"/>
			<point x="201" y="0"/>
			<point x="232" y="-9"/>
			<point x="232" y="31" type="curve" smooth="yes"/>
			<point x="232" y="33" type="line" smooth="yes"/>
			<point x="232" y="41"/>
			<point x="238" y="47"/>
			<point x="246" y="47" type="curve" smooth="yes"/>
			<point x="687" y="47" type="line" smooth="yes"/>
			<point x="753" y="47"/>
			<point x="802" y="96"/>
			<point x="802" y="162" type="curve" smooth="yes"/>
			<point x="802" y="585" type="line" smooth="yes"/>
			<point x="802" y="651"/>
			<point x="753" y="700"/>
			<point x="687" y="700" type="curve" smooth="yes"/>
			<point x="121" y="700" type="line" smooth="yes"/>
			<point x="81" y="700"/>
			<point x="50" y="669"/>
		</contour>
		<contour>
			<point x="536" y="372" type="curve" smooth="yes"/>
			<point x="306" y="372" type="line" smooth="yes"/>
			<point x="298" y="372"/>
			<point x="292" y="378"/>
			<point x="292" y="386" type="curve" smooth="yes"/>
			<point x="292" y="400" type="line" smooth="yes"/>
			<point x="292" y="409"/>
			<point x="298" y="414"/>
			<point x="306" y="414" type="curve" smooth="yes"/>
			<point x="536" y="414" type="line" smooth="yes"/>
			<point x="544" y="414"/>
			<point x="550" y="409"/>
			<point x="550" y="400" type="curve" smooth="yes"/>
			<point x="550" y="386" type="line" smooth="yes"/>
			<point x="550" y="378"/>
			<point x="544" y="372"/>
		</contour>
	</outline>
</glyph>
<glyph name="Q" format="2">
	<advance width="852"/>
	<unicode hex="0051"/>
	<outline>
		<contour>
			<point x="51" y="587" type="curve" smooth="yes"/>
			<point x="50" y="157" type="line" smooth="yes"/>
			<point x="50" y="90"/>
			<point x="99" y="42"/>
			<point x="165" y="42" type="curve" smooth="yes"/>
			<point x="218" y="42" type="line" smooth="yes"/>
			<point x="227" y="42"/>
			<point x="232" y="36"/>
			<point x="232" y="28" type="curve" smooth="yes"/>
			<point x="232" y="14" type="line" smooth="yes"/>
			<point x="232" y="6"/>
			<point x="238" y="0"/>
			<point x="246" y="0" type="curve" smooth="yes"/>
			<point x="788" y="0" type="line" smooth="yes"/>
			<point x="797" y="0"/>
			<point x="802" y="6"/>
			<point x="802" y="14" type="curve" smooth="yes"/>
			<point x="802" y="168" type="line" smooth="yes"/>
			<point x="802" y="177"/>
			<point x="797" y="182"/>
			<point x="788" y="182" type="curve" smooth="yes"/>
			<point x="774" y="182" type="line" smooth="yes"/>
			<point x="766" y="182"/>
			<point x="760" y="188"/>
			<point x="760" y="196" type="curve" smooth="yes"/>
			<point x="760" y="586" type="line" smooth="yes"/>
			<point x="760" y="651"/>
			<point x="711" y="700"/>
			<point x="645" y="700" type="curve" smooth="yes"/>
			<point x="165" y="700" type="line" smooth="yes"/>
			<point x="99" y="700"/>
			<point x="51" y="654"/>
		</contour>
		<contour>
			<point x="203" y="282" type="curve" smooth="yes"/>
			<point x="566" y="282" type="line" smooth="yes"/>
			<point x="574" y="282"/>
			<point x="580" y="276"/>
			<point x="580" y="268" type="curve" smooth="yes"/>
			<point x="580" y="254" type="line" smooth="yes"/>
			<point x="580" y="245"/>
			<point x="574" y="240"/>
			<point x="566" y="240" type="curve" smooth="yes"/>
			<point x="246" y="240" type="line" smooth="yes"/>
			<point x="238" y="240"/>
			<point x="236" y="240"/>
			<point x="232" y="240" type="curve"/>
			<point x="229" y="240" type="line"/>
			<point x="224" y="240"/>
			<point x="224" y="240"/>
			<point x="215" y="240" type="curve" smooth="yes"/>
			<point x="203" y="240" type="line" smooth="yes"/>
			<point x="194" y="240"/>
			<point x="189" y="246"/>
			<point x="189" y="254" type="curve" smooth="yes"/>
			<point x="189" y="268" type="line" smooth="yes"/>
			<point x="189" y="276"/>
			<point x="194" y="282"/>
		</contour>
	</outline>
</glyph>
<glyph name="R" format="2">
	<advance width="852"/>
	<unicode hex="0052"/>
	<outline>
		<contour>
			<point x="50" y="629" type="curve" smooth="yes"/>
			<point x="50" y="71" type="line" smooth="yes"/>
			<point x="50" y="31"/>
			<point x="81" y="0"/>
			<point x="121" y="0" type="curve" smooth="yes"/>
			<point x="161" y="0" type="line" smooth="yes"/>
			<point x="201" y="0"/>
			<point x="232" y="31"/>
			<point x="232" y="71" type="curve" smooth="yes"/>
			<point x="232" y="181" type="line" smooth="yes"/>
			<point x="232" y="190"/>
			<point x="238" y="195"/>
			<point x="246" y="195" type="curve" smooth="yes"/>
			<point x="260" y="195" type="line" smooth="yes"/>
			<point x="268" y="195"/>
			<point x="274" y="190"/>
			<point x="274" y="181" type="curve" smooth="yes"/>
			<point x="274" y="71" type="line" smooth="yes"/>
			<point x="274" y="31"/>
			<point x="305" y="0"/>
			<point x="345" y="0" type="curve" smooth="yes"/>
			<point x="731" y="0" type="line" smooth="yes"/>
			<point x="771" y="0"/>
			<point x="802" y="31"/>
			<point x="802" y="71" type="curve" smooth="yes"/>
			<point x="802" y="234" type="line" smooth="yes"/>
			<point x="802" y="274"/>
			<point x="771" y="305"/>
			<point x="731" y="305" type="curve" smooth="yes"/>
			<point x="480" y="305" type="line" smooth="yes"/>
			<point x="472" y="305"/>
			<point x="466" y="311"/>
			<point x="466" y="319" type="curve" smooth="yes"/>
			<point x="466" y="336" type="line" smooth="yes"/>
			<point x="466" y="344"/>
			<point x="472" y="350"/>
			<point x="480" y="350" type="curve" smooth="yes"/>
			<point x="687" y="350" type="line" smooth="yes"/>
			<point x="753" y="350"/>
			<point x="802" y="399"/>
			<point x="802" y="465" type="curve" smooth="yes"/>
			<point x="802" y="585" type="line" smooth="yes"/>
			<point x="802" y="651"/>
			<point x="753" y="700"/>
			<point x="687" y="700" type="curve" smooth="yes"/>
			<point x="121" y="700" type="line" smooth="yes"/>
			<point x="81" y="700"/>
			<point x="50" y="669"/>
		</contour>
		<contour>
			<point x="292" y="406" type="curve" smooth="yes"/>
			<point x="292" y="420" type="line" smooth="yes"/>
			<point x="292" y="429"/>
			<point x="298" y="434"/>
			<point x="306" y="434" type="curve" smooth="yes"/>
			<point x="546" y="434" type="line" smooth="yes"/>
			<point x="554" y="434"/>
			<point x="560" y="429"/>
			<point x="560" y="420" type="curve" smooth="yes"/>
			<point x="560" y="406" type="line" smooth="yes"/>
			<point x="560" y="398"/>
			<point x="554" y="392"/>
			<point x="546" y="392" type="curve" smooth="yes"/>
			<point x="306" y="392" type="line" smooth="yes"/>
			<point x="298" y="392"/>
			<point x="292" y="398"/>
		</contour>
	</outline>
</glyph>
<glyph name="T" format="2">
	<advance width="852"/>
	<unicode hex="0054"/>
	<outline>
		<contour>
			<point x="121" y="55" type="curve" smooth="yes"/>
			<point x="161" y="55" type="line" smooth="yes"/>
			<point x="201" y="55"/>
			<point x="232" y="86"/>
			<point x="232" y="126" type="curve" smooth="yes"/>
			<point x="232" y="268" type="line" smooth="yes"/>
			<point x="232" y="277"/>
			<point x="238" y="282"/>
			<point x="246" y="282" type="curve" smooth="yes"/>
			<point x="260" y="282" type="line" smooth="yes"/>
			<point x="268" y="282"/>
			<point x="274" y="277"/>
			<point x="274" y="268" type="curve" smooth="yes"/>
			<point x="274" y="71" type="line" smooth="yes"/>
			<point x="274" y="31"/>
			<point x="305" y="0"/>
			<point x="345" y="0" type="curve" smooth="yes"/>
			<point x="506" y="0" type="line" smooth="yes"/>
			<point x="547" y="0"/>
			<point x="578" y="31"/>
			<point x="578" y="71" type="curve" smooth="yes"/>
			<point x="578" y="268" type="line" smooth="yes"/>
			<point x="578" y="277"/>
			<point x="583" y="282"/>
			<point x="592" y="282" type="curve" smooth="yes"/>
			<point x="606" y="282" type="line" smooth="yes"/>
			<point x="614" y="282"/>
			<point x="620" y="277"/>
			<point x="620" y="268" type="curve" smooth="yes"/>
			<point x="620" y="126" type="line" smooth="yes"/>
			<point x="620" y="86"/>
			<point x="651" y="55"/>
			<point x="691" y="55" type="curve" smooth="yes"/>
			<point x="731" y="55" type="line" smooth="yes"/>
			<point x="771" y="55"/>
			<point x="802" y="86"/>
			<point x="802" y="126" type="curve" smooth="yes"/>
			<point x="802" y="629" type="line" smooth="yes"/>
			<point x="802" y="669"/>
			<point x="771" y="700"/>
			<point x="731" y="700" type="curve" smooth="yes"/>
			<point x="121" y="700" type="line" smooth="yes"/>
			<point x="81" y="700"/>
			<point x="50" y="669"/>
			<point x="50" y="629" type="curve" smooth="yes"/>
			<point x="50" y="126" type="line" smooth="yes"/>
			<point x="50" y="86"/>
			<point x="81" y="55"/>
		</contour>
	</outline>
</glyph>
<glyph name="V" format="2">
	<advance width="851"/>
	<unicode hex="0056"/>
	<outline>
		<contour>
			<point x="50" y="628" type="curve" smooth="yes"/>
			<point x="50" y="128" type="line" smooth="yes"/>
			<point x="50" y="88"/>
			<point x="81" y="57"/>
			<point x="121" y="57" type="curve" smooth="yes"/>
			<point x="221" y="57" type="line" smooth="yes"/>
			<point x="229" y="57"/>
			<point x="235" y="51"/>
			<point x="235" y="43" type="curve" smooth="yes"/>
			<point x="235" y="41" type="line" smooth="yes"/>
			<point x="235" y="1"/>
			<point x="265" y="0"/>
			<point x="306" y="0" type="curve" smooth="yes"/>
			<point x="549" y="0" type="line" smooth="yes"/>
			<point x="590" y="0"/>
			<point x="621" y="1"/>
			<point x="621" y="41" type="curve" smooth="yes"/>
			<point x="621" y="43" type="line" smooth="yes"/>
			<point x="621" y="51"/>
			<point x="626" y="57"/>
			<point x="635" y="57" type="curve" smooth="yes"/>
			<point x="730" y="57" type="line" smooth="yes"/>
			<point x="771" y="57"/>
			<point x="801" y="88"/>
			<point x="801" y="128" type="curve" smooth="yes"/>
			<point x="801" y="628" type="line" smooth="yes"/>
			<point x="801" y="669"/>
			<point x="771" y="700"/>
			<point x="730" y="700" type="curve" smooth="yes"/>
			<point x="517" y="700" type="line" smooth="yes"/>
			<point x="477" y="700"/>
			<point x="446" y="669"/>
			<point x="446" y="628" type="curve" smooth="yes"/>
			<point x="446" y="405" type="line" smooth="yes"/>
			<point x="446" y="397"/>
			<point x="440" y="391"/>
			<point x="432" y="391" type="curve" smooth="yes"/>
			<point x="418" y="391" type="line" smooth="yes"/>
			<point x="410" y="391"/>
			<point x="404" y="397"/>
			<point x="404" y="405" type="curve" smooth="yes"/>
			<point x="404" y="628" type="line" smooth="yes"/>
			<point x="404" y="669"/>
			<point x="373" y="700"/>
			<point x="333" y="700" type="curve" smooth="yes"/>
			<point x="121" y="700" type="line" smooth="yes"/>
			<point x="81" y="700"/>
			<point x="50" y="669"/>
		</contour>
	</outline>
</glyph>
<glyph name="W" format="2">
	<advance width="852"/>
	<unicode hex="0057"/>
	<outline>
		<contour>
			<point x="50" y="629" type="curve" smooth="yes"/>
			<point x="50" y="71" type="line" smooth="yes"/>
			<point x="50" y="31"/>
			<point x="81" y="0"/>
			<point x="121" y="0" type="curve" smooth="yes"/>
			<point x="329" y="0" type="line" smooth="yes"/>
			<point x="369" y="0"/>
			<point x="400" y="31"/>
			<point x="400" y="71" type="curve" smooth="yes"/>
			<point x="400" y="226" type="line" smooth="yes"/>
			<point x="400" y="234"/>
			<point x="406" y="240"/>
			<point x="414" y="240" type="curve" smooth="yes"/>
			<point x="428" y="240" type="line" smooth="yes"/>
			<point x="436" y="240"/>
			<point x="442" y="234"/>
			<point x="442" y="226" type="curve" smooth="yes"/>
			<point x="442" y="71" type="line" smooth="yes"/>
			<point x="442" y="31"/>
			<point x="473" y="0"/>
			<point x="513" y="0" type="curve" smooth="yes"/>
			<point x="730" y="0" type="line" smooth="yes"/>
			<point x="771" y="0"/>
			<point x="802" y="31"/>
			<point x="802" y="71" type="curve" smooth="yes"/>
			<point x="802" y="629" type="line" smooth="yes"/>
			<point x="802" y="669"/>
			<point x="771" y="700"/>
			<point x="730" y="700" type="curve" smooth="yes"/>
			<point x="691" y="700" type="line" smooth="yes"/>
			<point x="651" y="700"/>
			<point x="620" y="669"/>
			<point x="620" y="629" type="curve" smooth="yes"/>
			<point x="620" y="498" type="line" smooth="yes"/>
			<point x="620" y="490"/>
			<point x="614" y="484"/>
			<point x="606" y="484" type="curve" smooth="yes"/>
			<point x="592" y="484" type="line" smooth="yes"/>
			<point x="583" y="484"/>
			<point x="578" y="490"/>
			<point x="578" y="498" type="curve" smooth="yes"/>
			<point x="578" y="629" type="line" smooth="yes"/>
			<point x="578" y="669"/>
			<point x="547" y="700"/>
			<point x="506" y="700" type="curve" smooth="yes"/>
			<point x="345" y="700" type="line" smooth="yes"/>
			<point x="305" y="700"/>
			<point x="274" y="669"/>
			<point x="274" y="629" type="curve" smooth="yes"/>
			<point x="274" y="498" type="line" smooth="yes"/>
			<point x="274" y="490"/>
			<point x="268" y="484"/>
			<point x="260" y="484" type="curve" smooth="yes"/>
			<point x="246" y="484" type="line" smooth="yes"/>
			<point x="238" y="484"/>
			<point x="232" y="490"/>
			<point x="232" y="498" type="curve" smooth="yes"/>
			<point x="232" y="629" type="line" smooth="yes"/>
			<point x="232" y="669"/>
			<point x="201" y="700"/>
			<point x="161" y="700" type="curve" smooth="yes"/>
			<point x="121" y="700" type="line" smooth="yes"/>
			<point x="81" y="700"/>
			<point x="50" y="669"/>
		</contour>
	</outline>
</glyph>
<glyph name="Y" format="2">
	<advance width="853"/>
	<unicode hex="0059"/>
	<outline>
		<contour>
			<point x="50" y="629" type="curve" smooth="yes"/>
			<point x="50" y="422" type="line" smooth="yes"/>
			<point x="50" y="381"/>
			<point x="81" y="350"/>
			<point x="121" y="350" type="curve" smooth="yes"/>
			<point x="158" y="350" type="line" smooth="yes"/>
			<point x="166" y="350"/>
			<point x="172" y="344"/>
			<point x="172" y="336" type="curve" smooth="yes"/>
			<point x="172" y="71" type="line" smooth="yes"/>
			<point x="172" y="31"/>
			<point x="203" y="0"/>
			<point x="243" y="0" type="curve" smooth="yes"/>
			<point x="610" y="0" type="line" smooth="yes"/>
			<point x="651" y="0"/>
			<point x="681" y="31"/>
			<point x="681" y="71" type="curve" smooth="yes"/>
			<point x="681" y="336" type="line" smooth="yes"/>
			<point x="681" y="344"/>
			<point x="687" y="350"/>
			<point x="695" y="350" type="curve" smooth="yes"/>
			<point x="732" y="350" type="line" smooth="yes"/>
			<point x="773" y="350"/>
			<point x="803" y="381"/>
			<point x="803" y="422" type="curve" smooth="yes"/>
			<point x="803" y="629" type="line" smooth="yes"/>
			<point x="803" y="669"/>
			<point x="773" y="700"/>
			<point x="732" y="700" type="curve" smooth="yes"/>
			<point x="520" y="700" type="line" smooth="yes"/>
			<point x="479" y="700"/>
			<point x="448" y="669"/>
			<point x="448" y="629" type="curve" smooth="yes"/>
			<point x="448" y="502" type="line" smooth="yes"/>
			<point x="448" y="494"/>
			<point x="443" y="488"/>
			<point x="434" y="488" type="curve" smooth="yes"/>
			<point x="420" y="488" type="line" smooth="yes"/>
			<point x="412" y="488"/>
			<point x="406" y="494"/>
			<point x="406" y="502" type="curve" smooth="yes"/>
			<point x="406" y="629" type="line" smooth="yes"/>
			<point x="406" y="669"/>
			<point x="375" y="700"/>
			<point x="335" y="700" type="curve" smooth="yes"/>
			<point x="121" y="700" type="line" smooth="yes"/>
			<point x="81" y="700"/>
			<point x="50" y="669"/>
		</contour>
	</outline>
</glyph>
<glyph name="underscore" format="2">
	<advance width="600"/>
	<unicode hex="005F"/>
	<outline>
		<contour>
			<point x="70" y="-67" type="curve" smooth="yes"/>
			<point x="70" y="-116" type="line" smooth="yes"/>
			<point x="70" y="-124"/>
			<point x="77" y="-131"/>
			<point x="85" y="-131" type="curve" smooth="yes"/>
			<point x="526" y="-131" type="line" smooth="yes"/>
			<point x="534" y="-131"/>
			<point x="541" y="-124"/>
			<point x="541" y="-116" type="curve" smooth="yes"/>
			<point x="541" y="-67" type="line" smooth="yes"/>
			<point x="541" y="-59"/>
			<point x="534" y="-52"/>
			<point x="526" y="-52" type="curve" smooth="yes"/>
			<point x="85" y="-52" type="line" smooth="yes"/>
			<point x="77" y="-52"/>
			<point x="70" y="-59"/>
		</contour>
	</outline>
</glyph>
<glyph name="a" format="2">
	<advance width="637"/>
	<unicode hex="0061"/>
	<outline>
		<contour>
			<point x="50" y="50" type="curve" smooth="yes"/>
			<point x="50" y="450" type="line" smooth="yes"/>
			<point x="50" y="477"/>
			<point x="71" y="500"/>
			<point x="99" y="500" type="curve" smooth="yes"/>
			<point x="536" y="500" type="line" smooth="yes"/>
			<point x="565" y="500"/>
			<point x="587" y="477"/>
			<point x="587" y="450" type="curve" smooth="yes"/>
			<point x="587" y="49" type="line" smooth="yes"/>
			<point x="587" y="21"/>
			<point x="565" y="0"/>
			<point x="536" y="0" type="curve" smooth="yes"/>
			<point x="505" y="0" type="line" smooth="yes"/>
			<point x="476" y="0"/>
			<point x="455" y="8"/>
			<point x="455" y="36" type="curve" smooth="yes"/>
			<point x="455" y="38" type="line" smooth="yes"/>
			<point x="455" y="44"/>
			<point x="450" y="48"/>
			<point x="444" y="48" type="curve" smooth="yes"/>
			<point x="193" y="48" type="line" smooth="yes"/>
			<point x="187" y="48"/>
			<point x="183" y="44"/>
			<point x="183" y="38" type="curve" smooth="yes"/>
			<point x="183" y="36" type="line" smooth="yes"/>
			<point x="183" y="8"/>
			<point x="161" y="0"/>
			<point x="133" y="0" type="curve" smooth="yes"/>
			<point x="99" y="0" type="line" smooth="yes"/>
			<point x="71" y="0"/>
			<point x="50" y="22"/>
		</contour>
		<contour>
			<point x="240" y="192" type="curve" smooth="yes"/>
			<point x="383" y="192" type="line" smooth="yes"/>
			<point x="389" y="192"/>
			<point x="393" y="196"/>
			<point x="393" y="202" type="curve" smooth="yes"/>
			<point x="393" y="212" type="line" smooth="yes"/>
			<point x="393" y="218"/>
			<point x="389" y="222"/>
			<point x="383" y="222" type="curve" smooth="yes"/>
			<point x="240" y="222" type="line" smooth="yes"/>
			<point x="234" y="222"/>
			<point x="230" y="218"/>
			<point x="230" y="212" type="curve" smooth="yes"/>
			<point x="230" y="202" type="line" smooth="yes"/>
			<point x="230" y="196"/>
			<point x="234" y="192"/>
		</contour>
	</outline>
</glyph>
<glyph name="b" format="2">
	<advance width="637"/>
	<unicode hex="0062"/>
	<outline>
		<contour>
			<point x="101" y="500" type="curve" smooth="yes"/>
			<point x="505" y="500" type="line" smooth="yes"/>
			<point x="552" y="500"/>
			<point x="587" y="465"/>
			<point x="587" y="418" type="curve" smooth="yes"/>
			<point x="587" y="316" type="line" smooth="yes"/>
			<point x="587" y="287"/>
			<point x="565" y="265"/>
			<point x="536" y="265" type="curve" smooth="yes"/>
			<point x="524" y="265" type="line" smooth="yes"/>
			<point x="519" y="265"/>
			<point x="514" y="261"/>
			<point x="514" y="255" type="curve" smooth="yes"/>
			<point x="514" y="245" type="line" smooth="yes"/>
			<point x="514" y="239"/>
			<point x="519" y="235"/>
			<point x="524" y="235" type="curve" smooth="yes"/>
			<point x="535" y="235" type="line" smooth="yes"/>
			<point x="564" y="235"/>
			<point x="586" y="213"/>
			<point x="586" y="184" type="curve" smooth="yes"/>
			<point x="586" y="82" type="line" smooth="yes"/>
			<point x="586" y="35"/>
			<point x="551" y="0"/>
			<point x="504" y="0" type="curve" smooth="yes"/>
			<point x="101" y="0" type="line" smooth="yes"/>
			<point x="72" y="0"/>
			<point x="50" y="22"/>
			<point x="50" y="51" type="curve" smooth="yes"/>
			<point x="50" y="449" type="line" smooth="yes"/>
			<point x="50" y="478"/>
			<point x="72" y="500"/>
		</contour>
		<contour>
			<point x="389" y="235" type="curve" smooth="yes"/>
			<point x="246" y="235" type="line" smooth="yes"/>
			<point x="240" y="235"/>
			<point x="236" y="231"/>
			<point x="236" y="225" type="curve" smooth="yes"/>
			<point x="236" y="215" type="line" smooth="yes"/>
			<point x="236" y="209"/>
			<point x="240" y="205"/>
			<point x="246" y="205" type="curve" smooth="yes"/>
			<point x="389" y="205" type="line" smooth="yes"/>
			<point x="395" y="205"/>
			<point x="399" y="209"/>
			<point x="399" y="215" type="curve" smooth="yes"/>
			<point x="399" y="225" type="line" smooth="yes"/>
			<point x="399" y="231"/>
			<point x="395" y="235"/>
		</contour>
		<contour>
			<point x="389" y="295" type="curve" smooth="yes"/>
			<point x="246" y="295" type="line" smooth="yes"/>
			<point x="240" y="295"/>
			<point x="236" y="291"/>
			<point x="236" y="285" type="curve" smooth="yes"/>
			<point x="236" y="275" type="line" smooth="yes"/>
			<point x="236" y="269"/>
			<point x="240" y="265"/>
			<point x="246" y="265" type="curve" smooth="yes"/>
			<point x="389" y="265" type="line" smooth="yes"/>
			<point x="395" y="265"/>
			<point x="399" y="269"/>
			<point x="399" y="275" type="curve" smooth="yes"/>
			<point x="399" y="285" type="line" smooth="yes"/>
			<point x="399" y="291"/>
			<point x="395" y="295"/>
		</contour>
	</outline>
</glyph>
<glyph name="d" format="2">
	<advance width="636"/>
	<unicode hex="0064"/>
	<outline>
		<contour>
			<point x="50" y="51" type="line"/>
			<point x="50" y="22"/>
			<point x="72" y="0"/>
			<point x="101" y="0" type="curve"/>
			<point x="506" y="0" type="line"/>
			<point x="552" y="0"/>
			<point x="586" y="34"/>
			<point x="586" y="82" type="curve"/>
			<point x="586" y="418" type="line"/>
			<point x="586" y="465"/>
			<point x="552" y="500"/>
			<point x="506" y="500" type="curve"/>
			<point x="101" y="500" type="line"/>
			<point x="72" y="500"/>
			<point x="50" y="478"/>
			<point x="50" y="449" type="curve"/>
		</contour>
		<contour>
			<point x="256" y="266" type="curve"/>
			<point x="419" y="266" type="line"/>
			<point x="424" y="266"/>
			<point x="428" y="261"/>
			<point x="428" y="256" type="curve"/>
			<point x="428" y="245" type="line"/>
			<point x="428" y="239"/>
			<point x="424" y="235"/>
			<point x="419" y="235" type="curve"/>
			<point x="256" y="235" type="line"/>
			<point x="251" y="235"/>
			<point x="246" y="239"/>
			<point x="246" y="245" type="curve"/>
			<point x="246" y="256" type="line"/>
			<point x="246" y="261"/>
			<point x="251" y="266"/>
		</contour>
	</outline>
</glyph>
<glyph name="f" format="2">
	<advance width="637"/>
	<unicode hex="0066"/>
	<outline>
		<contour>
			<point x="50" y="449" type="curve" smooth="yes"/>
			<point x="50" y="51" type="line" smooth="yes"/>
			<point x="50" y="22"/>
			<point x="72" y="0"/>
			<point x="101" y="0" type="curve" smooth="yes"/>
			<point x="129" y="0" type="line" smooth="yes"/>
			<point x="158" y="0"/>
			<point x="180" y="1"/>
			<point x="180" y="29" type="curve" smooth="yes"/>
			<point x="180" y="31" type="line" smooth="yes"/>
			<point x="180" y="36"/>
			<point x="184" y="41"/>
			<point x="190" y="41" type="curve" smooth="yes"/>
			<point x="463" y="41" type="line" smooth="yes"/>
			<point x="492" y="41"/>
			<point x="514" y="63"/>
			<point x="514" y="91" type="curve" smooth="yes"/>
			<point x="514" y="215" type="line" smooth="yes"/>
			<point x="514" y="244"/>
			<point x="492" y="266"/>
			<point x="463" y="266" type="curve" smooth="yes"/>
			<point x="326" y="266" type="line" smooth="yes"/>
			<point x="320" y="266"/>
			<point x="316" y="270"/>
			<point x="316" y="276" type="curve" smooth="yes"/>
			<point x="316" y="286" type="line" smooth="yes"/>
			<point x="316" y="292"/>
			<point x="320" y="296"/>
			<point x="326" y="296" type="curve" smooth="yes"/>
			<point x="536" y="296" type="line" smooth="yes"/>
			<point x="565" y="296"/>
			<point x="587" y="318"/>
			<point x="587" y="347" type="curve" smooth="yes"/>
			<point x="587" y="449" type="line" smooth="yes"/>
			<point x="587" y="478"/>
			<point x="565" y="500"/>
			<point x="536" y="500" type="curve" smooth="yes"/>
			<point x="101" y="500" type="line" smooth="yes"/>
			<point x="72" y="500"/>
			<point x="50" y="478"/>
		</contour>
	</outline>
</glyph>
<glyph name="h" format="2">
	<advance width="638"/>
	<unicode hex="0068"/>
	<outline>
		<contour>
			<point x="50" y="450" type="curve" smooth="yes"/>
			<point x="50" y="51" type="line" smooth="yes"/>
			<point x="50" y="22"/>
			<point x="72" y="0"/>
			<point x="101" y="0" type="curve" smooth="yes"/>
			<point x="253" y="0" type="line" smooth="yes"/>
			<point x="282" y="0"/>
			<point x="304" y="22"/>
			<point x="304" y="51" type="curve" smooth="yes"/>
			<point x="304" y="147" type="line" smooth="yes"/>
			<point x="304" y="152"/>
			<point x="308" y="157"/>
			<point x="314" y="157" type="curve" smooth="yes"/>
			<point x="324" y="157" type="line" smooth="yes"/>
			<point x="330" y="157"/>
			<point x="335" y="152"/>
			<point x="335" y="147" type="curve" smooth="yes"/>
			<point x="335" y="51" type="line" smooth="yes"/>
			<point x="335" y="22"/>
			<point x="356" y="0"/>
			<point x="385" y="0" type="curve" smooth="yes"/>
			<point x="536" y="0" type="line" smooth="yes"/>
			<point x="565" y="0"/>
			<point x="588" y="22"/>
			<point x="588" y="51" type="curve" smooth="yes"/>
			<point x="588" y="450" type="line" smooth="yes"/>
			<point x="588" y="478"/>
			<point x="565" y="500"/>
			<point x="536" y="500" type="curve" smooth="yes"/>
			<point x="385" y="500" type="line" smooth="yes"/>
			<point x="356" y="500"/>
			<point x="335" y="478"/>
			<point x="335" y="450" type="curve" smooth="yes"/>
			<point x="335" y="354" type="line" smooth="yes"/>
			<point x="335" y="348"/>
			<point x="330" y="344"/>
			<point x="324" y="344" type="curve" smooth="yes"/>
			<point x="314" y="344" type="line" smooth="yes"/>
			<point x="308" y="344"/>
			<point x="304" y="348"/>
			<point x="304" y="354" type="curve" smooth="yes"/>
			<point x="304" y="450" type="line" smooth="yes"/>
			<point x="304" y="478"/>
			<point x="282" y="500"/>
			<point x="253" y="500" type="curve" smooth="yes"/>
			<point x="101" y="500" type="line" smooth="yes"/>
			<point x="72" y="500"/>
			<point x="50" y="478"/>
		</contour>
	</outline>
</glyph>
<glyph name="i" format="2">
	<advance width="429"/>
	<unicode hex="0069"/>
	<outline>
		<contour>
			<point x="50" y="449" type="curve" smooth="yes"/>
			<point x="50" y="51" type="line" smooth="yes"/>
			<point x="50" y="22"/>
			<point x="72" y="0"/>
			<point x="101" y="0" type="curve" smooth="yes"/>
			<point x="327" y="0" type="line" smooth="yes"/>
			<point x="356" y="0"/>
			<point x="379" y="22"/>
			<point x="379" y="51" type="curve" smooth="yes"/>
			<point x="379" y="449" type="line" smooth="yes"/>
			<point x="379" y="478"/>
			<point x="356" y="500"/>
			<point x="327" y="500" type="curve" smooth="yes"/>
			<point x="101" y="500" type="line" smooth="yes"/>
			<point x="72" y="500"/>
			<point x="50" y="478"/>
		</contour>
	</outline>
</glyph>
<glyph name="k" format="2">
	<advance width="637"/>
	<unicode hex="006B"/>
	<outline>
		<contour>
			<point x="50" y="449" type="curve" smooth="yes"/>
			<point x="50" y="51" type="line" smooth="yes"/>
			<point x="50" y="22"/>
			<point x="72" y="0"/>
			<point x="101" y="0" type="curve" smooth="yes"/>
			<point x="129" y="0" type="line" smooth="yes"/>
			<point x="158" y="0"/>
			<point x="180" y="22"/>
			<point x="180" y="51" type="curve" smooth="yes"/>
			<point x="180" y="139" type="line" smooth="yes"/>
			<point x="180" y="145"/>
			<point x="184" y="149"/>
			<point x="190" y="149" type="curve" smooth="yes"/>
			<point x="200" y="149" type="line" smooth="yes"/>
			<point x="206" y="149"/>
			<point x="210" y="145"/>
			<point x="210" y="139" type="curve" smooth="yes"/>
			<point x="210" y="51" type="line" smooth="yes"/>
			<point x="210" y="22"/>
			<point x="232" y="0"/>
			<point x="261" y="0" type="curve" smooth="yes"/>
			<point x="536" y="0" type="line" smooth="yes"/>
			<point x="565" y="0"/>
			<point x="587" y="22"/>
			<point x="587" y="51" type="curve" smooth="yes"/>
			<point x="587" y="184" type="line" smooth="yes"/>
			<point x="587" y="213"/>
			<point x="565" y="235"/>
			<point x="536" y="235" type="curve" smooth="yes"/>
			<point x="386" y="235" type="line" smooth="yes"/>
			<point x="380" y="235"/>
			<point x="376" y="239"/>
			<point x="376" y="245" type="curve" smooth="yes"/>
			<point x="376" y="255" type="line" smooth="yes"/>
			<point x="376" y="261"/>
			<point x="380" y="265"/>
			<point x="386" y="265" type="curve" smooth="yes"/>
			<point x="536" y="265" type="line" smooth="yes"/>
			<point x="565" y="265"/>
			<point x="587" y="287"/>
			<point x="587" y="316" type="curve" smooth="yes"/>
			<point x="587" y="449" type="line" smooth="yes"/>
			<point x="587" y="478"/>
			<point x="565" y="500"/>
			<point x="536" y="500" type="curve" smooth="yes"/>
			<point x="261" y="500" type="line" smooth="yes"/>
			<point x="232" y="500"/>
			<point x="210" y="478"/>
			<point x="210" y="449" type="curve" smooth="yes"/>
			<point x="210" y="361" type="line" smooth="yes"/>
			<point x="210" y="355"/>
			<point x="206" y="351"/>
			<point x="200" y="351" type="curve" smooth="yes"/>
			<point x="190" y="351" type="line" smooth="yes"/>
			<point x="184" y="351"/>
			<point x="180" y="355"/>
			<point x="180" y="361" type="curve" smooth="yes"/>
			<point x="180" y="449" type="line" smooth="yes"/>
			<point x="180" y="478"/>
			<point x="158" y="500"/>
			<point x="129" y="500" type="curve" smooth="yes"/>
			<point x="101" y="500" type="line" smooth="yes"/>
			<point x="72" y="500"/>
			<point x="50" y="478"/>
		</contour>
	</outline>
</glyph>
<glyph name="m" format="2">
	<advance width="637"/>
	<unicode hex="006D"/>
	<outline>
		<contour>
			<point x="50" y="51" type="curve" smooth="yes"/>
			<point x="50" y="449" type="line" smooth="yes"/>
			<point x="50" y="478"/>
			<point x="72" y="500"/>
			<point x="101" y="500" type="curve" smooth="yes"/>
			<point x="253" y="500" type="line" smooth="yes"/>
			<point x="281" y="500"/>
			<point x="304" y="478"/>
			<point x="304" y="449" type="curve" smooth="yes"/>
			<point x="304" y="357" type="line" smooth="yes"/>
			<point x="304" y="351"/>
			<point x="308" y="347"/>
			<point x="314" y="347" type="curve" smooth="yes"/>
			<point x="324" y="347" type="line" smooth="yes"/>
			<point x="329" y="347"/>
			<point x="334" y="351"/>
			<point x="334" y="357" type="curve" smooth="yes"/>
			<point x="334" y="449" type="line" smooth="yes"/>
			<point x="334" y="478"/>
			<point x="356" y="500"/>
			<point x="385" y="500" type="curve" smooth="yes"/>
			<point x="536" y="500" type="line" smooth="yes"/>
			<point x="565" y="500"/>
			<point x="587" y="478"/>
			<point x="587" y="449" type="curve" smooth="yes"/>
			<point x="587" y="51" type="line" smooth="yes"/>
			<point x="587" y="22"/>
			<point x="565" y="0"/>
			<point x="536" y="0" type="curve" smooth="yes"/>
			<point x="508" y="0" type="line" smooth="yes"/>
			<point x="479" y="0"/>
			<point x="456" y="22"/>
			<point x="456" y="51" type="curve" smooth="yes"/>
			<point x="456" y="144" type="line" smooth="yes"/>
			<point x="456" y="151"/>
			<point x="453" y="154"/>
			<point x="446" y="154" type="curve" smooth="yes"/>
			<point x="436" y="154" type="line" smooth="yes"/>
			<point x="431" y="154"/>
			<point x="426" y="151"/>
			<point x="426" y="144" type="curve" smooth="yes"/>
			<point x="426" y="51" type="line" smooth="yes"/>
			<point x="426" y="22"/>
			<point x="405" y="0"/>
			<point x="376" y="0" type="curve" smooth="yes"/>
			<point x="261" y="0" type="line" smooth="yes"/>
			<point x="232" y="0"/>
			<point x="210" y="22"/>
			<point x="210" y="51" type="curve" smooth="yes"/>
			<point x="210" y="144" type="line" smooth="yes"/>
			<point x="210" y="151"/>
			<point x="206" y="154"/>
			<point x="200" y="154" type="curve" smooth="yes"/>
			<point x="190" y="154" type="line" smooth="yes"/>
			<point x="184" y="154"/>
			<point x="180" y="151"/>
			<point x="180" y="144" type="curve" smooth="yes"/>
			<point x="180" y="51" type="line" smooth="yes"/>
			<point x="180" y="22"/>
			<point x="158" y="0"/>
			<point x="129" y="0" type="curve" smooth="yes"/>
			<point x="101" y="0" type="line" smooth="yes"/>
			<point x="72" y="0"/>
			<point x="50" y="22"/>
		</contour>
	</outline>
</glyph>
<glyph name="p" format="2">
	<advance width="637"/>
	<unicode hex="0070"/>
	<outline>
		<contour>
			<point x="50" y="449" type="curve" smooth="yes"/>
			<point x="50" y="51" type="line" smooth="yes"/>
			<point x="50" y="23"/>
			<point x="72" y="0"/>
			<point x="101" y="0" type="curve" smooth="yes"/>
			<point x="130" y="0" type="line" smooth="yes"/>
			<point x="158" y="0"/>
			<point x="180" y="-6"/>
			<point x="180" y="23" type="curve" smooth="yes"/>
			<point x="180" y="24" type="line" smooth="yes"/>
			<point x="180" y="30"/>
			<point x="184" y="34"/>
			<point x="189" y="34" type="curve" smooth="yes"/>
			<point x="504" y="34" type="line" smooth="yes"/>
			<point x="552" y="34"/>
			<point x="587" y="69"/>
			<point x="587" y="116" type="curve" smooth="yes"/>
			<point x="587" y="417" type="line" smooth="yes"/>
			<point x="587" y="465"/>
			<point x="552" y="500"/>
			<point x="504" y="500" type="curve" smooth="yes"/>
			<point x="101" y="500" type="line" smooth="yes"/>
			<point x="72" y="500"/>
			<point x="50" y="478"/>
		</contour>
		<contour>
			<point x="397" y="267" type="curve" smooth="yes"/>
			<point x="232" y="267" type="line" smooth="yes"/>
			<point x="226" y="267"/>
			<point x="222" y="271"/>
			<point x="222" y="277" type="curve" smooth="yes"/>
			<point x="222" y="287" type="line" smooth="yes"/>
			<point x="222" y="293"/>
			<point x="226" y="297"/>
			<point x="232" y="297" type="curve" smooth="yes"/>
			<point x="397" y="297" type="line" smooth="yes"/>
			<point x="403" y="297"/>
			<point x="407" y="293"/>
			<point x="407" y="287" type="curve" smooth="yes"/>
			<point x="407" y="277" type="line" smooth="yes"/>
			<point x="407" y="271"/>
			<point x="403" y="267"/>
		</contour>
	</outline>
</glyph>
<glyph name="q" format="2">
	<advance width="637"/>
	<unicode hex="0071"/>
	<outline>
		<contour>
			<point x="51" y="419" type="curve" smooth="yes"/>
			<point x="50" y="112" type="line" smooth="yes"/>
			<point x="50" y="64"/>
			<point x="85" y="30"/>
			<point x="132" y="30" type="curve" smooth="yes"/>
			<point x="170" y="30" type="line" smooth="yes"/>
			<point x="176" y="30"/>
			<point x="180" y="26"/>
			<point x="180" y="20" type="curve" smooth="yes"/>
			<point x="180" y="10" type="line" smooth="yes"/>
			<point x="180" y="4"/>
			<point x="184" y="0"/>
			<point x="190" y="0" type="curve" smooth="yes"/>
			<point x="577" y="0" type="line" smooth="yes"/>
			<point x="583" y="0"/>
			<point x="587" y="4"/>
			<point x="587" y="10" type="curve" smooth="yes"/>
			<point x="587" y="120" type="line" smooth="yes"/>
			<point x="587" y="126"/>
			<point x="583" y="130"/>
			<point x="577" y="130" type="curve" smooth="yes"/>
			<point x="567" y="130" type="line" smooth="yes"/>
			<point x="561" y="130"/>
			<point x="557" y="134"/>
			<point x="557" y="140" type="curve" smooth="yes"/>
			<point x="557" y="418" type="line" smooth="yes"/>
			<point x="557" y="465"/>
			<point x="522" y="500"/>
			<point x="475" y="500" type="curve" smooth="yes"/>
			<point x="132" y="500" type="line" smooth="yes"/>
			<point x="85" y="500"/>
			<point x="51" y="467"/>
		</contour>
		<contour>
			<point x="159" y="201" type="curve" smooth="yes"/>
			<point x="418" y="201" type="line" smooth="yes"/>
			<point x="424" y="201"/>
			<point x="428" y="197"/>
			<point x="428" y="191" type="curve" smooth="yes"/>
			<point x="428" y="181" type="line" smooth="yes"/>
			<point x="428" y="175"/>
			<point x="424" y="171"/>
			<point x="418" y="171" type="curve" smooth="yes"/>
			<point x="190" y="171" type="line" smooth="yes"/>
			<point x="184" y="171"/>
			<point x="183" y="171"/>
			<point x="180" y="171" type="curve"/>
			<point x="178" y="171" type="line"/>
			<point x="174" y="171"/>
			<point x="174" y="171"/>
			<point x="168" y="171" type="curve" smooth="yes"/>
			<point x="159" y="171" type="line" smooth="yes"/>
			<point x="153" y="171"/>
			<point x="149" y="176"/>
			<point x="149" y="181" type="curve" smooth="yes"/>
			<point x="149" y="191" type="line" smooth="yes"/>
			<point x="149" y="197"/>
			<point x="153" y="201"/>
		</contour>
	</outline>
</glyph>
<glyph name="r" format="2">
	<advance width="637"/>
	<unicode hex="0072"/>
	<outline>
		<contour>
			<point x="50" y="449" type="curve" smooth="yes"/>
			<point x="50" y="51" type="line" smooth="yes"/>
			<point x="50" y="22"/>
			<point x="72" y="0"/>
			<point x="101" y="0" type="curve" smooth="yes"/>
			<point x="129" y="0" type="line" smooth="yes"/>
			<point x="158" y="0"/>
			<point x="180" y="22"/>
			<point x="180" y="51" type="curve" smooth="yes"/>
			<point x="180" y="129" type="line" smooth="yes"/>
			<point x="180" y="136"/>
			<point x="184" y="139"/>
			<point x="190" y="139" type="curve" smooth="yes"/>
			<point x="200" y="139" type="line" smooth="yes"/>
			<point x="206" y="139"/>
			<point x="210" y="136"/>
			<point x="210" y="129" type="curve" smooth="yes"/>
			<point x="210" y="51" type="line" smooth="yes"/>
			<point x="210" y="22"/>
			<point x="232" y="0"/>
			<point x="261" y="0" type="curve" smooth="yes"/>
			<point x="536" y="0" type="line" smooth="yes"/>
			<point x="565" y="0"/>
			<point x="587" y="22"/>
			<point x="587" y="51" type="curve" smooth="yes"/>
			<point x="587" y="167" type="line" smooth="yes"/>
			<point x="587" y="196"/>
			<point x="565" y="218"/>
			<point x="536" y="218" type="curve" smooth="yes"/>
			<point x="357" y="218" type="line" smooth="yes"/>
			<point x="351" y="218"/>
			<point x="347" y="222"/>
			<point x="347" y="228" type="curve" smooth="yes"/>
			<point x="347" y="240" type="line" smooth="yes"/>
			<point x="347" y="246"/>
			<point x="351" y="250"/>
			<point x="357" y="250" type="curve" smooth="yes"/>
			<point x="505" y="250" type="line" smooth="yes"/>
			<point x="552" y="250"/>
			<point x="587" y="285"/>
			<point x="587" y="332" type="curve" smooth="yes"/>
			<point x="587" y="418" type="line" smooth="yes"/>
			<point x="587" y="465"/>
			<point x="552" y="500"/>
			<point x="505" y="500" type="curve" smooth="yes"/>
			<point x="101" y="500" type="line" smooth="yes"/>
			<point x="72" y="500"/>
			<point x="50" y="478"/>
		</contour>
		<contour>
			<point x="223" y="290" type="curve" smooth="yes"/>
			<point x="223" y="300" type="line" smooth="yes"/>
			<point x="223" y="306"/>
			<point x="227" y="310"/>
			<point x="233" y="310" type="curve" smooth="yes"/>
			<point x="404" y="310" type="line" smooth="yes"/>
			<point x="410" y="310"/>
			<point x="414" y="306"/>
			<point x="414" y="300" type="curve" smooth="yes"/>
			<point x="414" y="290" type="line" smooth="yes"/>
			<point x="414" y="284"/>
			<point x="410" y="280"/>
			<point x="404" y="280" type="curve" smooth="yes"/>
			<point x="233" y="280" type="line" smooth="yes"/>
			<point x="227" y="280"/>
			<point x="223" y="284"/>
		</contour>
	</outline>
</glyph>
<glyph name="s" format="2">
	<advance width="635"/>
	<unicode hex="0073"/>
	<outline>
		<contour>
			<point x="50" y="418" type="curve" smooth="yes"/>
			<point x="50" y="242" type="line" smooth="yes"/>
			<point x="50" y="195"/>
			<point x="85" y="160"/>
			<point x="132" y="160" type="curve" smooth="yes"/>
			<point x="252" y="160" type="line" smooth="yes"/>
			<point x="258" y="160"/>
			<point x="262" y="156"/>
			<point x="262" y="150" type="curve" smooth="yes"/>
			<point x="262" y="140" type="line" smooth="yes"/>
			<point x="262" y="134"/>
			<point x="258" y="130"/>
			<point x="252" y="130" type="curve" smooth="yes"/>
			<point x="101" y="130" type="line" smooth="yes"/>
			<point x="72" y="130"/>
			<point x="50" y="108"/>
			<point x="50" y="79" type="curve" smooth="yes"/>
			<point x="50" y="51" type="line" smooth="yes"/>
			<point x="50" y="22"/>
			<point x="72" y="0"/>
			<point x="101" y="0" type="curve" smooth="yes"/>
			<point x="503" y="0" type="line" smooth="yes"/>
			<point x="550" y="0"/>
			<point x="585" y="35"/>
			<point x="585" y="82" type="curve" smooth="yes"/>
			<point x="585" y="258" type="line" smooth="yes"/>
			<point x="585" y="305"/>
			<point x="550" y="340"/>
			<point x="503" y="340" type="curve" smooth="yes"/>
			<point x="354" y="340" type="line" smooth="yes"/>
			<point x="349" y="340"/>
			<point x="344" y="344"/>
			<point x="344" y="350" type="curve" smooth="yes"/>
			<point x="344" y="360" type="line" smooth="yes"/>
			<point x="344" y="366"/>
			<point x="349" y="370"/>
			<point x="354" y="370" type="curve" smooth="yes"/>
			<point x="534" y="370" type="line" smooth="yes"/>
			<point x="563" y="370"/>
			<point x="585" y="392"/>
			<point x="585" y="421" type="curve" smooth="yes"/>
			<point x="585" y="449" type="line" smooth="yes"/>
			<point x="585" y="478"/>
			<point x="563" y="500"/>
			<point x="534" y="500" type="curve" smooth="yes"/>
			<point x="132" y="500" type="line" smooth="yes"/>
			<point x="85" y="500"/>
			<point x="50" y="465"/>
		</contour>
	</outline>
</glyph>
<glyph name="t" format="2">
	<advance width="637"/>
	<unicode hex="0074"/>
	<outline>
		<contour>
			<point x="101" y="39" type="curve" smooth="yes"/>
			<point x="129" y="39" type="line" smooth="yes"/>
			<point x="158" y="39"/>
			<point x="180" y="61"/>
			<point x="180" y="90" type="curve" smooth="yes"/>
			<point x="180" y="191" type="line" smooth="yes"/>
			<point x="180" y="198"/>
			<point x="184" y="201"/>
			<point x="190" y="201" type="curve" smooth="yes"/>
			<point x="200" y="201" type="line" smooth="yes"/>
			<point x="206" y="201"/>
			<point x="210" y="198"/>
			<point x="210" y="191" type="curve" smooth="yes"/>
			<point x="210" y="51" type="line" smooth="yes"/>
			<point x="210" y="22"/>
			<point x="232" y="0"/>
			<point x="261" y="0" type="curve" smooth="yes"/>
			<point x="376" y="0" type="line" smooth="yes"/>
			<point x="405" y="0"/>
			<point x="427" y="22"/>
			<point x="427" y="51" type="curve" smooth="yes"/>
			<point x="427" y="191" type="line" smooth="yes"/>
			<point x="427" y="198"/>
			<point x="431" y="201"/>
			<point x="437" y="201" type="curve" smooth="yes"/>
			<point x="447" y="201" type="line" smooth="yes"/>
			<point x="453" y="201"/>
			<point x="457" y="198"/>
			<point x="457" y="191" type="curve" smooth="yes"/>
			<point x="457" y="90" type="line" smooth="yes"/>
			<point x="457" y="61"/>
			<point x="479" y="39"/>
			<point x="508" y="39" type="curve" smooth="yes"/>
			<point x="536" y="39" type="line" smooth="yes"/>
			<point x="565" y="39"/>
			<point x="587" y="61"/>
			<point x="587" y="90" type="curve" smooth="yes"/>
			<point x="587" y="449" type="line" smooth="yes"/>
			<point x="587" y="478"/>
			<point x="565" y="500"/>
			<point x="536" y="500" type="curve" smooth="yes"/>
			<point x="101" y="500" type="line" smooth="yes"/>
			<point x="72" y="500"/>
			<point x="50" y="478"/>
			<point x="50" y="449" type="curve" smooth="yes"/>
			<point x="50" y="90" type="line" smooth="yes"/>
			<point x="50" y="61"/>
			<point x="72" y="39"/>
		</contour>
	</outline>
</glyph>
<glyph name="v" format="2">
	<advance width="636"/>
	<unicode hex="0076"/>
	<outline>
		<contour>
			<point x="50" y="449" type="curve" smooth="yes"/>
			<point x="50" y="91" type="line" smooth="yes"/>
			<point x="50" y="63"/>
			<point x="72" y="41"/>
			<point x="101" y="41" type="curve" smooth="yes"/>
			<point x="172" y="41" type="line" smooth="yes"/>
			<point x="178" y="41"/>
			<point x="182" y="36"/>
			<point x="182" y="31" type="curve" smooth="yes"/>
			<point x="182" y="29" type="line" smooth="yes"/>
			<point x="182" y="1"/>
			<point x="204" y="0"/>
			<point x="233" y="0" type="curve" smooth="yes"/>
			<point x="406" y="0" type="line" smooth="yes"/>
			<point x="436" y="0"/>
			<point x="458" y="1"/>
			<point x="458" y="29" type="curve" smooth="yes"/>
			<point x="458" y="31" type="line" smooth="yes"/>
			<point x="458" y="36"/>
			<point x="461" y="41"/>
			<point x="468" y="41" type="curve" smooth="yes"/>
			<point x="536" y="41" type="line" smooth="yes"/>
			<point x="565" y="41"/>
			<point x="586" y="63"/>
			<point x="586" y="91" type="curve" smooth="yes"/>
			<point x="586" y="449" type="line" smooth="yes"/>
			<point x="586" y="478"/>
			<point x="565" y="500"/>
			<point x="536" y="500" type="curve" smooth="yes"/>
			<point x="384" y="500" type="line" smooth="yes"/>
			<point x="355" y="500"/>
			<point x="333" y="478"/>
			<point x="333" y="449" type="curve" smooth="yes"/>
			<point x="333" y="289" type="line" smooth="yes"/>
			<point x="333" y="284"/>
			<point x="329" y="279"/>
			<point x="323" y="279" type="curve" smooth="yes"/>
			<point x="313" y="279" type="line" smooth="yes"/>
			<point x="307" y="279"/>
			<point x="303" y="284"/>
			<point x="303" y="289" type="curve" smooth="yes"/>
			<point x="303" y="449" type="line" smooth="yes"/>
			<point x="303" y="478"/>
			<point x="281" y="500"/>
			<point x="252" y="500" type="curve" smooth="yes"/>
			<point x="101" y="500" type="line" smooth="yes"/>
			<point x="72" y="500"/>
			<point x="50" y="478"/>
		</contour>
	</outline>
</glyph>
<glyph name="w" format="2">
	<advance width="638"/>
	<unicode hex="0077"/>
	<outline>
		<contour>
			<point x="50" y="450" type="curve" smooth="yes"/>
			<point x="50" y="51" type="line" smooth="yes"/>
			<point x="50" y="22"/>
			<point x="72" y="0"/>
			<point x="101" y="0" type="curve" smooth="yes"/>
			<point x="250" y="0" type="line" smooth="yes"/>
			<point x="279" y="0"/>
			<point x="301" y="22"/>
			<point x="301" y="51" type="curve" smooth="yes"/>
			<point x="301" y="162" type="line" smooth="yes"/>
			<point x="301" y="168"/>
			<point x="305" y="172"/>
			<point x="311" y="172" type="curve" smooth="yes"/>
			<point x="321" y="172" type="line" smooth="yes"/>
			<point x="326" y="172"/>
			<point x="331" y="168"/>
			<point x="331" y="162" type="curve" smooth="yes"/>
			<point x="331" y="51" type="line" smooth="yes"/>
			<point x="331" y="22"/>
			<point x="353" y="0"/>
			<point x="382" y="0" type="curve" smooth="yes"/>
			<point x="536" y="0" type="line" smooth="yes"/>
			<point x="565" y="0"/>
			<point x="588" y="22"/>
			<point x="588" y="51" type="curve" smooth="yes"/>
			<point x="588" y="450" type="line" smooth="yes"/>
			<point x="588" y="478"/>
			<point x="565" y="500"/>
			<point x="536" y="500" type="curve" smooth="yes"/>
			<point x="508" y="500" type="line" smooth="yes"/>
			<point x="480" y="500"/>
			<point x="457" y="478"/>
			<point x="457" y="450" type="curve" smooth="yes"/>
			<point x="457" y="357" type="line" smooth="yes"/>
			<point x="457" y="351"/>
			<point x="453" y="347"/>
			<point x="447" y="347" type="curve" smooth="yes"/>
			<point x="437" y="347" type="line" smooth="yes"/>
			<point x="431" y="347"/>
			<point x="427" y="351"/>
			<point x="427" y="357" type="curve" smooth="yes"/>
			<point x="427" y="450" type="line" smooth="yes"/>
			<point x="427" y="478"/>
			<point x="406" y="500"/>
			<point x="377" y="500" type="curve" smooth="yes"/>
			<point x="261" y="500" type="line" smooth="yes"/>
			<point x="233" y="500"/>
			<point x="210" y="478"/>
			<point x="210" y="450" type="curve" smooth="yes"/>
			<point x="210" y="357" type="line" smooth="yes"/>
			<point x="210" y="351"/>
			<point x="206" y="347"/>
			<point x="200" y="347" type="curve" smooth="yes"/>
			<point x="190" y="347" type="line" smooth="yes"/>
			<point x="185" y="347"/>
			<point x="180" y="351"/>
			<point x="180" y="357" type="curve" smooth="yes"/>
			<point x="180" y="450" type="line" smooth="yes"/>
			<point x="180" y="478"/>
			<point x="158" y="500"/>
			<point x="130" y="500" type="curve" smooth="yes"/>
			<point x="101" y="500" type="line" smooth="yes"/>
			<point x="72" y="500"/>
			<point x="50" y="478"/>
		</contour>
	</outline>
</glyph>
<glyph name="x" format="2">
	<advance width="637"/>
	<unicode hex="0078"/>
	<outline>
		<contour>
			<point x="50" y="449" type="curve" smooth="yes"/>
			<point x="50" y="316" type="line" smooth="yes"/>
			<point x="50" y="287"/>
			<point x="72" y="265"/>
			<point x="101" y="265" type="curve" smooth="yes"/>
			<point x="226" y="265" type="line" smooth="yes"/>
			<point x="231" y="265"/>
			<point x="236" y="261"/>
			<point x="236" y="255" type="curve" smooth="yes"/>
			<point x="236" y="245" type="line" smooth="yes"/>
			<point x="236" y="239"/>
			<point x="231" y="235"/>
			<point x="226" y="235" type="curve" smooth="yes"/>
			<point x="101" y="235" type="line" smooth="yes"/>
			<point x="72" y="235"/>
			<point x="50" y="213"/>
			<point x="50" y="184" type="curve" smooth="yes"/>
			<point x="50" y="51" type="line" smooth="yes"/>
			<point x="50" y="22"/>
			<point x="72" y="0"/>
			<point x="101" y="0" type="curve" smooth="yes"/>
			<point x="252" y="0" type="line" smooth="yes"/>
			<point x="281" y="0"/>
			<point x="303" y="22"/>
			<point x="303" y="51" type="curve" smooth="yes"/>
			<point x="303" y="144" type="line" smooth="yes"/>
			<point x="303" y="149"/>
			<point x="307" y="154"/>
			<point x="313" y="154" type="curve" smooth="yes"/>
			<point x="323" y="154" type="line" smooth="yes"/>
			<point x="329" y="154"/>
			<point x="333" y="149"/>
			<point x="333" y="144" type="curve" smooth="yes"/>
			<point x="333" y="51" type="line" smooth="yes"/>
			<point x="333" y="22"/>
			<point x="355" y="0"/>
			<point x="384" y="0" type="curve" smooth="yes"/>
			<point x="536" y="0" type="line" smooth="yes"/>
			<point x="565" y="0"/>
			<point x="587" y="22"/>
			<point x="587" y="51" type="curve" smooth="yes"/>
			<point x="587" y="184" type="line" smooth="yes"/>
			<point x="587" y="213"/>
			<point x="565" y="235"/>
			<point x="536" y="235" type="curve" smooth="yes"/>
			<point x="417" y="235" type="line" smooth="yes"/>
			<point x="411" y="235"/>
			<point x="407" y="239"/>
			<point x="407" y="245" type="curve" smooth="yes"/>
			<point x="407" y="255" type="line" smooth="yes"/>
			<point x="407" y="261"/>
			<point x="411" y="265"/>
			<point x="417" y="265" type="curve" smooth="yes"/>
			<point x="536" y="265" type="line" smooth="yes"/>
			<point x="565" y="265"/>
			<point x="587" y="287"/>
			<point x="587" y="316" type="curve" smooth="yes"/>
			<point x="587" y="449" type="line" smooth="yes"/>
			<point x="587" y="478"/>
			<point x="565" y="500"/>
			<point x="536" y="500" type="curve" smooth="yes"/>
			<point x="384" y="500" type="line" smooth="yes"/>
			<point x="355" y="500"/>
			<point x="333" y="478"/>
			<point x="333" y="449" type="curve" smooth="yes"/>
			<point x="333" y="349" type="line" smooth="yes"/>
			<point x="333" y="344"/>
			<point x="329" y="339"/>
			<point x="323" y="339" type="curve" smooth="yes"/>
			<point x="313" y="339" type="line" smooth="yes"/>
			<point x="307" y="339"/>
			<point x="303" y="344"/>
			<point x="303" y="349" type="curve" smooth="yes"/>
			<point x="303" y="449" type="line" smooth="yes"/>
			<point x="303" y="478"/>
			<point x="281" y="500"/>
			<point x="252" y="500" type="curve" smooth="yes"/>
			<point x="101" y="500" type="line" smooth="yes"/>
			<point x="72" y="500"/>
			<point x="50" y="478"/>
		</contour>
	</outline>
</glyph>
<glyph name="y" format="2">
	<advance width="638"/>
	<unicode hex="0079"/>
	<outline>
		<contour>
			<point x="50" y="449" type="curve" smooth="yes"/>
			<point x="50" y="301" type="line" smooth="yes"/>
			<point x="50" y="272"/>
			<point x="72" y="250"/>
			<point x="101" y="250" type="curve" smooth="yes"/>
			<point x="127" y="250" type="line" smooth="yes"/>
			<point x="133" y="250"/>
			<point x="137" y="246"/>
			<point x="137" y="240" type="curve" smooth="yes"/>
			<point x="137" y="51" type="line" smooth="yes"/>
			<point x="137" y="22"/>
			<point x="159" y="0"/>
			<point x="188" y="0" type="curve" smooth="yes"/>
			<point x="450" y="0" type="line" smooth="yes"/>
			<point x="479" y="0"/>
			<point x="501" y="22"/>
			<point x="501" y="51" type="curve" smooth="yes"/>
			<point x="501" y="240" type="line" smooth="yes"/>
			<point x="501" y="246"/>
			<point x="505" y="250"/>
			<point x="511" y="250" type="curve" smooth="yes"/>
			<point x="537" y="250" type="line" smooth="yes"/>
			<point x="566" y="250"/>
			<point x="588" y="272"/>
			<point x="588" y="301" type="curve" smooth="yes"/>
			<point x="588" y="449" type="line" smooth="yes"/>
			<point x="588" y="478"/>
			<point x="566" y="500"/>
			<point x="537" y="500" type="curve" smooth="yes"/>
			<point x="386" y="500" type="line" smooth="yes"/>
			<point x="356" y="500"/>
			<point x="334" y="478"/>
			<point x="334" y="449" type="curve" smooth="yes"/>
			<point x="334" y="359" type="line" smooth="yes"/>
			<point x="334" y="353"/>
			<point x="331" y="349"/>
			<point x="324" y="349" type="curve" smooth="yes"/>
			<point x="314" y="349" type="line" smooth="yes"/>
			<point x="309" y="349"/>
			<point x="304" y="353"/>
			<point x="304" y="359" type="curve" smooth="yes"/>
			<point x="304" y="449" type="line" smooth="yes"/>
			<point x="304" y="478"/>
			<point x="282" y="500"/>
			<point x="254" y="500" type="curve" smooth="yes"/>
			<point x="101" y="500" type="line" smooth="yes"/>
			<point x="72" y="500"/>
			<point x="50" y="478"/>
		</contour>
	</outline>
</glyph>
<glyph name="z" format="2">
	<advance width="637"/>
	<unicode hex="007A"/>
	<outline>
		<contour>
			<point x="101" y="500" type="curve" smooth="yes"/>
			<point x="536" y="500" type="line" smooth="yes"/>
			<point x="565" y="500"/>
			<point x="587" y="479"/>
			<point x="587" y="449" type="curve" smooth="yes"/>
			<point x="587" y="211" type="line" smooth="yes"/>
			<point x="587" y="182"/>
			<point x="565" y="160"/>
			<point x="536" y="160" type="curve" smooth="yes"/>
			<point x="339" y="160" type="line" smooth="yes"/>
			<point x="334" y="160"/>
			<point x="329" y="156"/>
			<point x="329" y="150" type="curve" smooth="yes"/>
			<point x="329" y="140" type="line" smooth="yes"/>
			<point x="329" y="134"/>
			<point x="334" y="130"/>
			<point x="339" y="130" type="curve" smooth="yes"/>
			<point x="536" y="130" type="line" smooth="yes"/>
			<point x="565" y="130"/>
			<point x="587" y="108"/>
			<point x="587" y="79" type="curve" smooth="yes"/>
			<point x="587" y="51" type="line" smooth="yes"/>
			<point x="587" y="22"/>
			<point x="565" y="0"/>
			<point x="536" y="0" type="curve" smooth="yes"/>
			<point x="101" y="0" type="line" smooth="yes"/>
			<point x="72" y="0"/>
			<point x="50" y="22"/>
			<point x="50" y="51" type="curve" smooth="yes"/>
			<point x="50" y="289" type="line" smooth="yes"/>
			<point x="50" y="318"/>
			<point x="72" y="340"/>
			<point x="101" y="340" type="curve" smooth="yes"/>
			<point x="318" y="340" type="line" smooth="yes"/>
			<point x="324" y="340"/>
			<point x="328" y="344"/>
			<point x="328" y="350" type="curve" smooth="yes"/>
			<point x="328" y="360" type="line" smooth="yes"/>
			<point x="328" y="366"/>
			<point x="324" y="370"/>
			<point x="318" y="370" type="curve" smooth="yes"/>
			<point x="101" y="370" type="line" smooth="yes"/>
			<point x="72" y="370"/>
			<point x="50" y="392"/>
			<point x="50" y="421" type="curve" smooth="yes"/>
			<point x="50" y="449" type="line" smooth="yes"/>
			<point x="50" y="479"/>
			<point x="72" y="500"/>
		</contour>
	</outline>
</glyph>
<glyph name="guillemetright" format="2">
	<advance width="497"/>
	<unicode hex="00BB"/>
	<outline>
		<contour>
			<point x="222" y="60" type="line" smooth="yes"/>
			<point x="230" y="60"/>
			<point x="237" y="67"/>
			<point x="237" y="75" type="curve" smooth="yes"/>
			<point x="237" y="375" type="line" smooth="yes"/>
			<point x="237" y="383"/>
			<point x="230" y="390"/>
			<point x="222" y="390" type="curve" smooth="yes"/>
			<point x="65" y="390" type="line" smooth="yes"/>
			<point x="57" y="390"/>
			<point x="50" y="383"/>
			<point x="50" y="375" type="curve" smooth="yes"/>
			<point x="50" y="295" type="line" smooth="yes"/>
			<point x="50" y="287"/>
			<point x="57" y="280"/>
			<point x="65" y="280" type="curve" smooth="yes"/>
			<point x="112" y="280" type="line" smooth="yes"/>
			<point x="120" y="280"/>
			<point x="127" y="273"/>
			<point x="127" y="265" type="curve" smooth="yes"/>
			<point x="127" y="185" type="line" smooth="yes"/>
			<point x="127" y="177"/>
			<point x="120" y="170"/>
			<point x="112" y="170" type="curve" smooth="yes"/>
			<point x="65" y="170" type="line" smooth="yes"/>
			<point x="57" y="170"/>
			<point x="50" y="163"/>
			<point x="50" y="155" type="curve" smooth="yes"/>
			<point x="50" y="75" type="line" smooth="yes"/>
			<point x="50" y="67"/>
			<point x="57" y="60"/>
			<point x="65" y="60" type="curve" smooth="yes"/>
		</contour>
		<contour>
			<point x="432" y="60" type="line" smooth="yes"/>
			<point x="440" y="60"/>
			<point x="447" y="67"/>
			<point x="447" y="75" type="curve" smooth="yes"/>
			<point x="447" y="375" type="line" smooth="yes"/>
			<point x="447" y="383"/>
			<point x="440" y="390"/>
			<point x="432" y="390" type="curve" smooth="yes"/>
			<point x="275" y="390" type="line" smooth="yes"/>
			<point x="267" y="390"/>
			<point x="260" y="383"/>
			<point x="260" y="375" type="curve" smooth="yes"/>
			<point x="260" y="295" type="line" smooth="yes"/>
			<point x="260" y="287"/>
			<point x="267" y="280"/>
			<point x="275" y="280" type="curve" smooth="yes"/>
			<point x="322" y="280" type="line" smooth="yes"/>
			<point x="330" y="280"/>
			<point x="337" y="273"/>
			<point x="337" y="265" type="curve" smooth="yes"/>
			<point x="337" y="185" type="line" smooth="yes"/>
			<point x="337" y="177"/>
			<point x="330" y="170"/>
			<point x="322" y="170" type="curve" smooth="yes"/>
			<point x="275" y="170" type="line" smooth="yes"/>
			<point x="267" y="170"/>
			<point x="260" y="163"/>
			<point x="260" y="155" type="curve" smooth="yes"/>
			<point x="260" y="75" type="line" smooth="yes"/>
			<point x="260" y="67"/>
			<point x="267" y="60"/>
			<point x="275" y="60" type="curve" smooth="yes"/>
		</contour>
	</outline>
</glyph>
<glyph name="guilsinglleft" format="2">
	<advance width="600"/>
	<unicode hex="2039"/>
	<outline>
		<contour>
			<point x="198" y="60" type="curve" smooth="yes"/>
			<point x="398" y="60" type="line" smooth="yes"/>
			<point x="408" y="60"/>
			<point x="417" y="69"/>
			<point x="417" y="79" type="curve" smooth="yes"/>
			<point x="417" y="181" type="line" smooth="yes"/>
			<point x="417" y="191"/>
			<point x="408" y="200"/>
			<point x="398" y="200" type="curve" smooth="yes"/>
			<point x="338" y="200" type="line" smooth="yes"/>
			<point x="328" y="200"/>
			<point x="319" y="209"/>
			<point x="319" y="220" type="curve" smooth="yes"/>
			<point x="319" y="321" type="line" smooth="yes"/>
			<point x="319" y="331"/>
			<point x="328" y="341"/>
			<point x="338" y="341" type="curve" smooth="yes"/>
			<point x="398" y="341" type="line" smooth="yes"/>
			<point x="408" y="341"/>
			<point x="417" y="349"/>
			<point x="417" y="360" type="curve" smooth="yes"/>
			<point x="417" y="462" type="line" smooth="yes"/>
			<point x="417" y="472"/>
			<point x="408" y="481"/>
			<point x="398" y="481" type="curve" smooth="yes"/>
			<point x="198" y="481" type="line" smooth="yes"/>
			<point x="188" y="481"/>
			<point x="179" y="472"/>
			<point x="179" y="462" type="curve" smooth="yes"/>
			<point x="179" y="79" type="line" smooth="yes"/>
			<point x="179" y="69"/>
			<point x="188" y="60"/>
		</contour>
	</outline>
</glyph>
